<svg width="138" height="137" viewBox="0 0 138 137" fill="none" xmlns="http://www.w3.org/2000/svg">
<path d="M51.1266 25.9327C48.7229 19.8304 43.9928 15.1209 38.3419 11.9718C35.0267 9.45415 38.2571 4.36876 41.9056 6.40163C48.3121 10.6184 53.6482 16.4052 56.6602 23.5327C56.8948 24.0967 57.2154 24.175 57.7791 24.1705C67.0955 22.4659 75.9421 29.6092 75.3916 39.3023C75.3577 39.8241 75.3282 40.1962 75.9385 40.4652C91.6522 47.5272 104.748 58.9738 118.657 68.9173C122.812 72.0617 125.496 76.0878 125.733 81.5697C126.19 92.1204 126.359 102.668 125.851 113.216C125.253 123.43 121.455 133.029 109.332 130.802C91.6109 128.951 73.921 126.868 56.3299 124.02C44.0787 122.137 31.5018 121.299 19.879 116.655C8.54356 112.319 12.0165 103.898 12.5576 94.4391C13.5879 81.626 14.0793 68.7907 14.1629 55.9378C14.1989 54.1722 14.2501 52.4012 14.4251 50.6457C14.5878 49.0149 15.8185 48.321 17.2426 47.9394C24.4364 46.0009 31.6582 44.1646 38.8431 42.1946C39.1771 42.1014 39.6401 41.6878 39.6663 41.3897C40.1282 34.1265 45.0106 29.2593 51.1266 25.9327ZM19.2726 95.7175C19.5002 101.295 16.4187 107.989 23.4439 110.005C42.2042 115.989 62.134 116.748 81.4612 120.044C91.9172 121.386 102.4 122.526 112.879 123.679C117.963 124.058 118.213 115.117 118.604 111.523C114.449 111.486 110.406 110.673 106.291 110.193C77.2924 105.152 47.6874 103.837 19.2726 95.7175ZM20.5509 79.0943C20.4908 79.1114 20.4306 79.1285 20.3705 79.1455C20.1914 82.2239 19.992 85.3015 19.868 88.382C19.8567 88.6616 20.2803 89.1322 20.5867 89.2205C52.7268 97.6554 85.9857 100.028 118.773 104.928C118.773 101.175 118.773 97.4742 118.773 93.7735C118.641 93.6735 118.509 93.5734 118.376 93.4734C117.336 95.4106 114.398 97.2369 112.613 98.5863C104.114 104.096 95.8676 96.4692 91.4935 89.4034C89.7042 87.0999 89.0147 86.9794 86.6678 88.7457C84.9843 90.0126 83.4875 91.5313 81.7825 92.7648C69.9034 101.622 67.0996 88.4375 63.2147 79.7994C59.4401 82.6696 57.3476 86.9346 53.8964 90.1174C49.4621 94.4985 42.0149 92.2456 40.4585 86.3263C39.478 83.4224 39.0617 80.7593 38.0966 77.7428C31.71 81.7211 24.7936 90.9413 20.5509 79.0943ZM53.0871 31.7526C42.9289 36.876 44.413 52.2107 56.7376 51.6324C70.3692 50.6519 74.3743 30.8651 58.8129 29.6844C58.7227 32.8946 58.2115 33.9514 56.7064 34.3122C55.1687 34.6809 54.2976 34.076 53.0871 31.7526Z" fill="#110F0F"/>
<path d="M19.2728 95.7175C47.687 103.837 77.2929 105.153 106.291 110.193C110.407 110.673 114.447 111.485 118.604 111.523C118.246 115.094 117.917 124.087 112.879 123.679C102.4 122.526 91.9172 121.386 81.4613 120.043C62.1339 116.748 42.2048 115.989 23.4439 110.006C16.4098 107.97 19.5021 101.321 19.2728 95.7175Z" fill="white"/>
<path d="M20.5511 79.0945C24.7973 90.9446 31.7117 81.7174 38.0968 77.7433C39.0604 80.7575 39.478 83.4244 40.4582 86.3268C42.0161 92.2444 49.4621 94.5003 53.8968 90.1176C57.3489 86.9334 59.4383 82.6711 63.2148 79.7997C67.1082 88.4483 69.8956 101.618 81.7828 92.7649C83.4876 91.5314 84.9844 90.013 86.6679 88.7461C89.0148 86.9799 89.7043 87.1004 91.4934 89.4041C95.8599 96.4674 104.126 104.098 112.613 98.586C114.439 97.4173 116.055 95.9147 117.733 94.5223C118.032 94.2743 118.166 93.8284 118.377 93.4737C118.509 93.5737 118.641 93.6738 118.773 93.7738C118.773 97.4744 118.773 101.175 118.773 104.928C85.9861 100.028 52.7267 97.6554 20.5868 89.221C20.2806 89.1324 19.8569 88.6618 19.8681 88.3822C19.9922 85.3016 20.1916 82.2241 20.3706 79.1456C20.4307 79.1287 20.4908 79.1116 20.5511 79.0945Z" fill="white"/>
<path d="M53.0866 31.7525C54.2971 34.0761 55.1682 34.6808 56.7058 34.3122C58.211 33.9513 58.722 32.8946 58.8123 29.6844C74.3761 30.866 70.3651 50.6551 56.7366 51.6327C44.4106 52.2073 42.9288 36.8762 53.0866 31.7525Z" fill="#BB053A"/>
</svg>
