<svg width="273" height="158" viewBox="0 0 273 158" fill="none" xmlns="http://www.w3.org/2000/svg">
<path d="M19.136 84.2724C15.936 84.2724 13.248 83.7177 11.072 82.6084C8.93867 81.5417 7.31733 80.0911 6.208 78.2564C5.14133 76.4644 4.608 74.4591 4.608 72.2404C4.608 70.5337 4.90667 68.7844 5.504 66.9924C6.144 65.2004 7.08267 63.4297 8.32 61.6804C9.6 59.931 11.1787 58.3311 13.056 56.8804C14.9333 55.4297 16.9813 54.2777 19.2 53.4244C21.4187 52.5284 23.616 52.0804 25.792 52.0804C27.968 52.0804 29.568 52.5284 30.592 53.4244C31.6587 54.2777 32.192 55.3871 32.192 56.7524C32.192 57.5631 32 58.4591 31.616 59.4404C31.232 60.4217 30.6347 61.4031 29.824 62.3844C28.7147 63.7924 27.3493 65.0511 25.728 66.1604C24.1067 67.2271 22.3787 68.0804 20.544 68.7204C18.752 69.3177 16.96 69.6164 15.168 69.6164C14.8693 69.6164 14.592 69.6164 14.336 69.6164C14.08 69.5737 13.8027 69.5311 13.504 69.4884C13.3333 69.4457 13.248 69.3391 13.248 69.1684C13.2907 68.9551 13.3973 68.8697 13.568 68.9124C15.3173 69.0404 17.1733 68.7631 19.136 68.0804C21.1413 67.3977 23.04 66.4591 24.832 65.2644C26.624 64.0697 28.032 62.7684 29.056 61.3604C30.2507 59.6964 30.848 58.1604 30.848 56.7524C30.848 55.7284 30.4853 54.875 29.76 54.1924C29.0347 53.467 27.8827 53.1044 26.304 53.1044C24.2133 53.1044 22.1867 53.5524 20.224 54.4484C18.2613 55.3017 16.4267 56.4324 14.72 57.8404C13.056 59.2484 11.6267 60.7844 10.432 62.4484C9.28 64.0271 8.40533 65.6911 7.808 67.4404C7.21067 69.1897 6.912 70.8751 6.912 72.4964C6.912 74.3737 7.33867 76.1231 8.192 77.7444C9.04533 79.3231 10.3467 80.5817 12.096 81.5204C13.8453 82.5017 16.0853 82.9924 18.816 82.9924C21.8453 82.9924 24.5973 82.4591 27.072 81.3924C29.5467 80.3684 31.68 78.9604 33.472 77.1684C35.264 75.3337 36.6293 73.2644 37.568 70.9604C38.5493 68.6137 39.04 66.1391 39.04 63.5364C39.04 62.4271 38.9973 61.3604 38.912 60.3364C38.8693 59.2697 38.6773 58.2457 38.336 57.2644C37.8667 55.7711 37.2693 54.2137 36.544 52.5924C35.8187 50.9711 35.1573 49.3071 34.56 47.6004C34.0053 45.8937 33.728 44.1657 33.728 42.4164C33.728 40.8377 34.048 39.259 34.688 37.6804C35.5413 35.7604 36.7787 34.2244 38.4 33.0724C40.064 31.8777 42.0053 31.2804 44.224 31.2804C45.0347 31.2804 45.8453 31.4084 46.656 31.6644C47.5093 31.8777 48.2347 32.2617 48.832 32.8164C49.4293 33.3711 49.728 34.1391 49.728 35.1204C49.728 35.803 49.5147 36.2937 49.088 36.5924C48.6613 36.891 48.2133 37.0404 47.744 37.0404C47.488 37.0404 47.3173 37.019 47.232 36.9764L47.424 35.6964C47.424 34.6297 47.104 33.8404 46.464 33.3284C45.8667 32.7737 45.0773 32.4964 44.096 32.4964C42.9013 32.4964 41.728 32.8377 40.576 33.5204C39.424 34.1604 38.5707 34.9924 38.016 36.0164C37.1627 37.5951 36.736 39.2164 36.736 40.8804C36.736 42.331 36.9707 43.7604 37.44 45.1684C37.952 46.5337 38.5493 47.8777 39.232 49.2004C39.9573 50.4804 40.6187 51.7177 41.216 52.9124C42.9227 56.1551 43.776 59.5471 43.776 63.0884C43.776 66.1604 43.136 68.9977 41.856 71.6004C40.576 74.1604 38.8053 76.3791 36.544 78.2564C34.2827 80.1764 31.6587 81.6484 28.672 82.6724C25.728 83.7391 22.5493 84.2724 19.136 84.2724ZM61.4575 78.1924C60.2628 78.1924 59.2175 77.7444 58.3215 76.8484C57.4682 75.9524 57.0415 74.6511 57.0415 72.9444C57.0415 72.3044 57.1055 71.6431 57.2335 70.9604C56.8068 71.7711 56.2308 72.6457 55.5055 73.5844C54.7802 74.4804 54.0548 75.2911 53.3295 76.0164C52.6468 76.6991 51.8362 77.2537 50.8975 77.6804C50.0015 78.0644 49.1055 78.2137 48.2095 78.1284C47.0148 78.0004 46.1615 77.5737 45.6495 76.8484C45.1802 76.1231 44.9455 75.2271 44.9455 74.1604C44.9455 72.7524 45.2228 71.2164 45.7775 69.5524C46.3748 67.8884 47.0575 66.3097 47.8255 64.8164C48.5935 63.2804 49.2122 62.0857 49.6815 61.2324C50.6202 59.6537 51.5588 58.6724 52.4975 58.2884C53.4788 57.9044 54.6735 57.7124 56.0815 57.7124C55.6548 57.8404 55.1002 58.3524 54.4175 59.2484C53.7348 60.1017 53.0095 61.1684 52.2415 62.4484C51.5162 63.7284 50.8122 65.1151 50.1295 66.6084C49.4895 68.0591 48.9562 69.4884 48.5295 70.8964C48.1455 72.2617 47.9535 73.4351 47.9535 74.4164C47.9535 75.1417 48.0815 75.7391 48.3375 76.2084C48.6362 76.6777 49.0842 76.9124 49.6815 76.9124C50.1935 76.9124 50.7908 76.7204 51.4735 76.3364C52.1562 75.9097 52.7748 75.3977 53.3295 74.8004C55.2068 72.7097 56.7215 70.4271 57.8735 67.9524C59.0682 65.4351 60.3908 62.9391 61.8415 60.4644C62.7802 58.8857 63.7188 57.9044 64.6575 57.5204C65.6388 57.1364 66.8335 56.9444 68.2415 56.9444C67.8575 57.0724 67.3028 57.5844 66.5775 58.4804C65.8948 59.3337 65.1482 60.4217 64.3375 61.7444C63.5695 63.0671 62.8228 64.4751 62.0975 65.9684C61.4148 67.4617 60.8388 68.8911 60.3695 70.2564C59.9428 71.6217 59.7295 72.7737 59.7295 73.7124C59.7295 74.9924 60.0708 75.8457 60.7535 76.2724C61.4362 76.6564 62.0548 76.8484 62.6095 76.8484C63.7188 76.8484 64.7642 76.4857 65.7455 75.7604C66.7695 75.0351 67.6868 74.1177 68.4975 73.0084C69.3508 71.8991 70.0762 70.7684 70.6735 69.6164C71.3135 68.4217 71.8042 67.3977 72.1455 66.5444C71.9748 65.8617 71.8895 64.6457 71.8895 62.8964C71.8895 61.8297 71.9535 60.7417 72.0815 59.6324C72.2095 58.5231 72.4228 57.5631 72.7215 56.7524C73.1482 55.6857 73.8095 55.1524 74.7055 55.1524C75.0468 55.1524 75.3455 55.3231 75.6015 55.6644C75.9002 56.0057 76.0495 56.5817 76.0495 57.3924C76.0495 58.5871 75.8575 59.8244 75.4735 61.1044C75.1322 62.3417 74.8548 63.1951 74.6415 63.6644C74.4708 64.0911 74.2575 64.6244 74.0015 65.2644C73.7455 65.8617 73.4468 66.5231 73.1055 67.2484C73.0628 68.5711 73.2762 69.6591 73.7455 70.5124C74.2575 71.3231 74.8762 71.7284 75.6015 71.7284C76.4122 71.7284 77.1162 71.4937 77.7135 71.0244C78.3535 70.5124 78.8868 69.9151 79.3135 69.2324C79.7828 68.5071 80.1668 67.8457 80.4655 67.2484C80.5935 66.9924 80.7642 66.8644 80.9775 66.8644C81.1482 66.8644 81.2335 66.9711 81.2335 67.1844C81.2335 67.3124 81.1695 67.5044 81.0415 67.7604C80.5295 68.9124 79.8042 70.0004 78.8655 71.0244C77.9268 72.0484 76.7748 72.5604 75.4095 72.5604C74.7268 72.5604 74.0442 72.2831 73.3615 71.7284C72.7215 71.1737 72.3375 70.2991 72.2095 69.1044C71.4842 70.3844 70.6095 71.7284 69.5855 73.1364C68.6042 74.5444 67.4522 75.7391 66.1295 76.7204C64.8068 77.7017 63.2495 78.1924 61.4575 78.1924ZM86.3175 78.2564C83.8428 78.2564 82.0935 77.6164 81.0695 76.3364C80.5575 75.7817 80.1948 75.1204 79.9815 74.3524C79.7682 73.5844 79.6615 72.7951 79.6615 71.9844C79.6615 70.9604 79.7895 69.9364 80.0455 68.9124C80.3015 67.8457 80.6215 66.8644 81.0055 65.9684C81.6028 64.5604 82.3922 63.1524 83.3735 61.7444C84.3548 60.2937 85.5282 59.0777 86.8935 58.0964C88.3015 57.1151 89.8375 56.6244 91.5015 56.6244C92.6108 56.6244 93.4855 56.9017 94.1255 57.4564C94.7655 58.0111 95.0855 58.8644 95.0855 60.0164C95.0855 61.3391 94.6802 62.6831 93.8695 64.0484C93.0588 65.3711 92.0348 66.4804 90.7975 67.3764C89.5602 68.2724 88.2802 68.7204 86.9575 68.7204C85.7628 68.7204 84.7175 68.2937 83.8215 67.4404C83.5655 68.1231 83.3522 68.8911 83.1815 69.7444C83.0108 70.5551 82.9255 71.3871 82.9255 72.2404C82.9255 73.5631 83.1815 74.7151 83.6935 75.6964C84.2482 76.6777 85.2295 77.1684 86.6375 77.1684C87.6615 77.1684 88.6428 76.9124 89.5815 76.4004C90.5628 75.8457 91.4375 75.1844 92.2055 74.4164C93.0588 73.5204 93.8695 72.5604 94.6375 71.5364C95.4055 70.5124 96.1522 69.3177 96.8775 67.9524C96.9628 67.8244 97.0268 67.7604 97.0695 67.7604C97.2402 67.7604 97.3255 67.9524 97.3255 68.3364C97.3255 68.5924 97.2402 68.8697 97.0695 69.1684C96.4295 70.3204 95.6828 71.4937 94.8295 72.6884C93.9762 73.8404 93.1015 74.8431 92.2055 75.6964C91.3948 76.4644 90.5202 77.0831 89.5815 77.5524C88.6428 78.0217 87.5548 78.2564 86.3175 78.2564ZM84.1415 66.4804C84.4402 66.9071 84.7815 67.2271 85.1655 67.4404C85.5922 67.6111 86.0188 67.6964 86.4455 67.6964C87.4695 67.6964 88.5362 67.3124 89.6455 66.5444C90.7548 65.7337 91.6508 64.7951 92.3335 63.7284C92.6322 63.2591 92.8882 62.6404 93.1015 61.8724C93.3575 61.1044 93.4855 60.3791 93.4855 59.6964C93.4855 59.0991 93.3575 58.5871 93.1015 58.1604C92.8882 57.6911 92.4402 57.4564 91.7575 57.4564C90.9895 57.4564 90.0722 57.9257 89.0055 58.8644C87.9815 59.8031 87.0002 61.0191 86.0615 62.5124C85.7628 63.0244 85.4215 63.6217 85.0375 64.3044C84.6962 64.9871 84.3975 65.7124 84.1415 66.4804ZM103.068 78.2564C100.593 78.2564 98.8435 77.6164 97.8195 76.3364C97.3075 75.7817 96.9448 75.1204 96.7315 74.3524C96.5182 73.5844 96.4115 72.7951 96.4115 71.9844C96.4115 70.9604 96.5395 69.9364 96.7955 68.9124C97.0515 67.8457 97.3715 66.8644 97.7555 65.9684C98.3528 64.5604 99.1422 63.1524 100.124 61.7444C101.105 60.2937 102.278 59.0777 103.644 58.0964C105.052 57.1151 106.588 56.6244 108.252 56.6244C109.361 56.6244 110.236 56.9017 110.876 57.4564C111.516 58.0111 111.836 58.8644 111.836 60.0164C111.836 61.3391 111.43 62.6831 110.62 64.0484C109.809 65.3711 108.785 66.4804 107.548 67.3764C106.31 68.2724 105.03 68.7204 103.708 68.7204C102.513 68.7204 101.468 68.2937 100.572 67.4404C100.316 68.1231 100.102 68.8911 99.9315 69.7444C99.7608 70.5551 99.6755 71.3871 99.6755 72.2404C99.6755 73.5631 99.9315 74.7151 100.444 75.6964C100.998 76.6777 101.98 77.1684 103.388 77.1684C104.412 77.1684 105.393 76.9124 106.332 76.4004C107.313 75.8457 108.188 75.1844 108.956 74.4164C109.809 73.5204 110.62 72.5604 111.388 71.5364C112.156 70.5124 112.902 69.3177 113.628 67.9524C113.713 67.8244 113.777 67.7604 113.82 67.7604C113.99 67.7604 114.076 67.9524 114.076 68.3364C114.076 68.5924 113.99 68.8697 113.82 69.1684C113.18 70.3204 112.433 71.4937 111.58 72.6884C110.726 73.8404 109.852 74.8431 108.956 75.6964C108.145 76.4644 107.27 77.0831 106.332 77.5524C105.393 78.0217 104.305 78.2564 103.068 78.2564ZM100.892 66.4804C101.19 66.9071 101.532 67.2271 101.916 67.4404C102.342 67.6111 102.769 67.6964 103.196 67.6964C104.22 67.6964 105.286 67.3124 106.396 66.5444C107.505 65.7337 108.401 64.7951 109.083 63.7284C109.382 63.2591 109.638 62.6404 109.852 61.8724C110.108 61.1044 110.236 60.3791 110.236 59.6964C110.236 59.0991 110.108 58.5871 109.852 58.1604C109.638 57.6911 109.19 57.4564 108.508 57.4564C107.74 57.4564 106.822 57.9257 105.756 58.8644C104.732 59.8031 103.75 61.0191 102.812 62.5124C102.513 63.0244 102.172 63.6217 101.788 64.3044C101.446 64.9871 101.148 65.7124 100.892 66.4804ZM116.234 78.1924C115.167 78.1924 114.207 77.8937 113.354 77.2964C112.543 76.6564 112.138 75.6324 112.138 74.2244C112.138 72.7311 112.5 71.0884 113.226 69.2964C113.951 67.5044 114.634 65.9044 115.274 64.4964C115.615 63.8137 116.063 62.8964 116.618 61.7444C117.215 60.5497 117.855 59.3764 118.538 58.2244H115.53C115.402 58.2244 115.338 58.1177 115.338 57.9044C115.338 57.7337 115.402 57.5631 115.53 57.3924C115.658 57.1791 115.807 57.0724 115.978 57.0724C117.172 57.0724 118.068 56.9657 118.666 56.7524C119.263 56.5391 119.775 56.2404 120.202 55.8564C120.884 55.2591 121.546 54.4911 122.186 53.5524C122.868 52.6137 123.53 51.8031 124.17 51.1204C124.639 50.5231 125.215 50.0751 125.898 49.7764C126.623 49.4777 127.092 49.371 127.306 49.4564C127.092 49.755 126.751 50.267 126.282 50.9924C125.812 51.7177 125.322 52.5071 124.81 53.3604C124.298 54.2137 123.828 55.003 123.402 55.7284C122.975 56.4537 122.698 56.9444 122.57 57.2004H126.794C126.922 57.2004 126.986 57.2431 126.986 57.3284C126.986 57.4991 126.879 57.6911 126.666 57.9044C126.495 58.1177 126.324 58.2244 126.154 58.2244H121.994C121.226 59.5471 120.308 61.2751 119.242 63.4084C118.218 65.4991 117.3 67.5257 116.49 69.4884C116.319 69.8724 116.02 70.6404 115.594 71.7924C115.21 72.9444 115.018 74.0111 115.018 74.9924C115.018 75.6324 115.146 76.1657 115.402 76.5924C115.7 77.0191 116.191 77.2324 116.874 77.2324C117.599 77.2324 118.388 76.9764 119.242 76.4644C120.095 75.9097 120.756 75.3551 121.226 74.8004C122.207 73.7337 123.103 72.5604 123.914 71.2804C124.724 70.0004 125.535 68.6351 126.346 67.1844C126.474 67.0137 126.602 66.9284 126.73 66.9284C126.9 66.9284 126.986 67.0564 126.986 67.3124C126.986 67.5257 126.943 67.6964 126.858 67.8244C126.09 69.2324 125.258 70.6404 124.362 72.0484C123.508 73.4564 122.463 74.7791 121.226 76.0164C120.671 76.5711 119.924 77.0831 118.986 77.5524C118.047 77.9791 117.13 78.1924 116.234 78.1924ZM127.714 78.2564C126.818 78.2564 125.986 78.0857 125.218 77.7444C124.493 77.3604 123.895 76.7204 123.426 75.8244C123.085 75.0564 122.914 74.2244 122.914 73.3284C122.914 72.3897 123.085 71.5151 123.426 70.7044C123.767 69.9791 124.151 69.3391 124.578 68.7844C125.005 68.2297 125.474 67.9097 125.986 67.8244C126.37 66.9711 126.903 65.9897 127.586 64.8804C128.269 63.7284 129.037 62.5764 129.89 61.4244C130.786 60.2724 131.682 59.2484 132.578 58.3524C133.73 57.2004 134.967 56.2831 136.29 55.6004C137.613 54.9177 138.935 54.5764 140.258 54.5764C141.282 54.5764 142.221 54.7897 143.074 55.2164C143.799 55.5577 144.162 56.0484 144.162 56.6884C144.162 56.987 144.055 57.2431 143.842 57.4564C143.671 57.6697 143.479 57.7764 143.266 57.7764C143.01 57.7764 142.754 57.6271 142.498 57.3284C142.029 56.7311 141.239 56.2831 140.13 55.9844C139.959 55.9417 139.789 55.9204 139.618 55.9204C139.447 55.8777 139.277 55.8564 139.106 55.8564C137.954 55.8564 137.101 56.2404 136.546 57.0084C135.991 57.7764 135.714 58.7151 135.714 59.8244C135.714 60.8911 135.949 62.1284 136.418 63.5364C136.887 64.9017 137.122 66.4377 137.122 68.1444C137.122 69.5097 136.845 70.8964 136.29 72.3044C135.991 72.9871 135.629 73.6484 135.202 74.2884C134.818 74.9284 134.327 75.5044 133.73 76.0164L132.834 76.6564C132.962 76.6991 133.09 76.7417 133.218 76.7844C133.346 76.7844 133.474 76.7844 133.602 76.7844C134.327 76.7844 135.138 76.5711 136.034 76.1444C136.93 75.6751 137.719 75.0991 138.402 74.4164C139.426 73.4351 140.301 72.3897 141.026 71.2804C141.794 70.1711 142.498 69.0191 143.138 67.8244C143.181 67.6537 143.287 67.5684 143.458 67.5684C143.671 67.5684 143.778 67.7391 143.778 68.0804C143.778 68.2511 143.714 68.4431 143.586 68.6564C142.946 69.8511 142.157 71.1097 141.218 72.4324C140.322 73.7124 139.383 74.8004 138.402 75.6964C137.634 76.3791 136.802 76.8911 135.906 77.2324C135.053 77.5311 134.327 77.6804 133.73 77.6804C133.303 77.6804 132.962 77.6377 132.706 77.5524C132.45 77.4671 132.215 77.3391 132.002 77.1684C131.405 77.4671 130.722 77.7231 129.954 77.9364C129.229 78.1497 128.482 78.2564 127.714 78.2564ZM130.146 76.5924C130.999 75.9951 131.661 75.2271 132.13 74.2884C132.642 73.3497 133.026 72.3471 133.282 71.2804C133.623 70.0004 133.815 68.7631 133.858 67.5684C133.943 66.3311 133.986 65.2431 133.986 64.3044V62.3204C133.986 61.4244 134.093 60.5071 134.306 59.5684C134.562 58.5871 134.903 57.8617 135.33 57.3924C134.775 57.5204 134.093 58.011 133.282 58.8644C132.471 59.6751 131.661 60.6351 130.85 61.7444C130.039 62.8537 129.293 63.9631 128.61 65.0724C127.97 66.1817 127.479 67.0991 127.138 67.8244C127.949 67.7817 128.503 68.0164 128.802 68.5284C129.101 68.9977 129.186 69.3391 129.058 69.5524C128.717 69.4671 128.482 69.4244 128.354 69.4244C127.714 69.4244 127.117 69.6591 126.562 70.1284C126.007 70.5551 125.538 71.1951 125.154 72.0484C124.77 72.8591 124.578 73.6484 124.578 74.4164C124.578 75.4404 124.877 76.1871 125.474 76.6564C126.071 77.1257 126.775 77.3604 127.586 77.3604C128.525 77.3604 129.378 77.1044 130.146 76.5924Z" fill="#BB053A"/>
<path d="M164.551 82.2884C164.381 82.3311 164.189 82.3524 163.975 82.3524C163.762 82.3524 163.549 82.3524 163.335 82.3524C161.885 82.3524 160.498 82.0964 159.175 81.5844C157.853 81.0724 156.978 80.0911 156.551 78.6404C156.423 78.2564 156.359 77.8297 156.359 77.3604C156.359 76.2084 156.722 75.1631 157.447 74.2244C157.618 74.0537 157.789 73.9471 157.959 73.9044C158.087 73.8191 158.151 73.9044 158.151 74.1604C158.279 76.2511 159.005 77.7444 160.327 78.6404C161.693 79.5791 163.293 80.0484 165.127 80.0484C166.877 80.0484 168.669 79.6857 170.503 78.9604C172.381 78.2351 174.045 77.2537 175.495 76.0164C177.373 74.3524 179.101 72.4324 180.679 70.2564C182.301 68.0804 183.837 65.8831 185.287 63.6644C185.799 62.8111 186.333 61.9577 186.887 61.1044C187.442 60.2511 187.997 59.4191 188.551 58.6084H172.615C172.53 58.6084 172.487 58.5657 172.487 58.4804C172.487 58.267 172.637 58.011 172.935 57.7124C173.277 57.3711 173.554 57.2004 173.767 57.2004H189.447C191.325 54.4271 193.266 51.7177 195.271 49.0724C197.277 46.3844 199.303 43.931 201.351 41.7124C203.869 39.0671 206.493 36.9551 209.223 35.3764C211.997 33.755 214.493 32.8804 216.711 32.7524C217.906 32.667 218.973 32.731 219.911 32.9444C220.893 33.115 221.682 33.4564 222.279 33.9684C222.834 34.3951 223.239 34.9284 223.495 35.5684C223.751 36.2084 223.879 36.8697 223.879 37.5524C223.879 37.7231 223.858 37.8937 223.815 38.0644C223.815 38.235 223.794 38.427 223.751 38.6404C223.623 39.3231 223.367 39.8777 222.983 40.3044C222.813 40.475 222.642 40.5604 222.471 40.5604C222.173 40.5604 222.151 40.3684 222.407 39.9844C222.791 39.4724 222.983 38.8537 222.983 38.1284C222.983 37.7444 222.919 37.403 222.791 37.1044C222.493 36.2937 221.917 35.6964 221.063 35.3124C220.253 34.8857 219.293 34.6724 218.183 34.6724C215.794 34.6724 213.277 35.5257 210.631 37.2324C208.711 38.4697 206.749 40.1337 204.743 42.2244C202.781 44.2724 200.797 46.5764 198.791 49.1364C196.829 51.6964 194.866 54.3844 192.903 57.2004H202.311C202.695 56.4324 203.079 55.6644 203.463 54.8964C203.89 54.1284 204.317 53.3604 204.743 52.5924C206.322 49.7337 207.943 47.0031 209.607 44.4004C211.314 41.7551 212.829 39.3657 214.151 37.2324C214.279 37.0191 214.407 36.9124 214.535 36.9124C214.706 36.9124 214.813 36.9977 214.855 37.1684C214.898 37.339 214.855 37.4884 214.727 37.6164C212.765 40.603 211.037 43.7604 209.543 47.0884C208.093 50.4164 206.77 53.7871 205.575 57.2004H208.711C208.797 57.2004 208.839 57.2431 208.839 57.3284C208.839 57.4991 208.669 57.7551 208.327 58.0964C208.029 58.4377 207.751 58.6084 207.495 58.6084H205.063C204.679 59.7177 204.21 61.2111 203.655 63.0884C203.143 64.9231 202.674 66.8431 202.247 68.8484C201.863 70.8537 201.671 72.6884 201.671 74.3524C201.671 75.8884 201.906 77.0831 202.375 77.9364C202.887 78.7897 203.677 79.2164 204.743 79.2164C204.871 79.2164 204.999 79.2164 205.127 79.2164C205.255 79.2164 205.383 79.1951 205.511 79.1524C206.237 79.0244 206.962 78.6191 207.687 77.9364C208.455 77.2537 209.202 76.4431 209.927 75.5044C210.951 74.1817 211.89 72.7737 212.743 71.2804C213.597 69.7871 214.237 68.6351 214.663 67.8244C214.877 67.4831 215.047 67.3124 215.175 67.3124C215.346 67.3124 215.431 67.4617 215.431 67.7604C215.431 67.9311 215.367 68.1444 215.239 68.4004C214.642 69.4671 213.874 70.8111 212.935 72.4324C212.039 74.0111 211.037 75.4831 209.927 76.8484C209.117 77.7871 208.263 78.5977 207.367 79.2804C206.471 79.9631 205.533 80.3897 204.551 80.5604C204.295 80.6031 204.039 80.6244 203.783 80.6244C203.57 80.6671 203.335 80.6884 203.079 80.6884C201.842 80.6884 200.754 80.3257 199.815 79.6004C198.877 78.9177 198.237 77.7444 197.895 76.0804C197.81 75.6111 197.746 75.1204 197.703 74.6084C197.661 74.0964 197.639 73.6057 197.639 73.1364C197.639 70.6617 198.066 68.1657 198.919 65.6484C199.815 63.1311 200.733 60.7844 201.671 58.6084H191.815C191.133 59.5471 190.471 60.5284 189.831 61.5524C189.191 62.5337 188.53 63.5151 187.847 64.4964C186.61 66.2884 185.117 68.1871 183.367 70.1924C181.661 72.1551 179.783 74.0324 177.735 75.8244C175.687 77.5737 173.533 79.0457 171.271 80.2404C169.053 81.4351 166.813 82.1177 164.551 82.2884ZM217.584 78.1284C216.176 78.1284 215.195 77.6804 214.64 76.7844C214.086 75.8884 213.808 74.7791 213.808 73.4564C213.808 72.0484 214.022 70.5124 214.448 68.8484C214.918 67.1844 215.472 65.5631 216.112 63.9844C216.752 62.3631 217.35 60.9551 217.904 59.7604C218.459 58.5657 218.843 57.7337 219.056 57.2644C219.824 55.6431 220.784 53.8084 221.936 51.7604C223.088 49.7124 224.368 47.6217 225.776 45.4884C227.184 43.3551 228.699 41.3284 230.32 39.4084C231.942 37.4884 233.606 35.8244 235.312 34.4164C237.019 33.0084 238.726 32.0484 240.432 31.5364C240.902 31.4084 241.328 31.3444 241.712 31.3444C242.438 31.3444 243.035 31.5577 243.504 31.9844C244.016 32.3684 244.272 33.051 244.272 34.0324C244.272 34.715 244.102 35.5684 243.76 36.5924C243.206 38.0857 242.267 39.7497 240.944 41.5844C239.622 43.3764 238.064 45.2537 236.272 47.2164C234.48 49.1364 232.582 51.0351 230.576 52.9124C228.614 54.7897 226.694 56.5391 224.816 58.1604C222.939 59.7817 221.275 61.1684 219.824 62.3204C219.44 63.1311 219.078 63.9204 218.736 64.6884C218.438 65.4564 218.16 66.2031 217.904 66.9284C217.776 67.3124 217.584 67.8884 217.328 68.6564C217.072 69.4244 216.838 70.2777 216.624 71.2164C216.411 72.1551 216.304 73.0511 216.304 73.9044C216.304 74.7577 216.475 75.5044 216.816 76.1444C217.158 76.7417 217.776 77.0404 218.672 77.0404C219.398 77.0404 220.272 76.6564 221.296 75.8884C222.363 75.0777 223.451 74.0324 224.56 72.7524C225.712 71.4724 226.822 70.1284 227.888 68.7204C228.998 67.2697 230 65.8831 230.896 64.5604C231.792 63.2377 232.475 62.1497 232.944 61.2964C233.328 60.3577 233.691 59.5257 234.032 58.8004C234.374 58.0751 234.63 57.563 234.8 57.2644C235.568 55.6431 236.528 53.8084 237.68 51.7604C238.832 49.7124 240.112 47.6217 241.52 45.4884C242.928 43.3551 244.443 41.3284 246.064 39.4084C247.686 37.4884 249.35 35.8244 251.056 34.4164C252.763 33.0084 254.47 32.0484 256.176 31.5364C256.646 31.4084 257.072 31.3444 257.456 31.3444C258.182 31.3444 258.779 31.5577 259.248 31.9844C259.76 32.3684 260.016 33.051 260.016 34.0324C260.016 34.715 259.846 35.5684 259.504 36.5924C258.95 38.0857 258.011 39.7497 256.688 41.5844C255.366 43.3764 253.808 45.2537 252.016 47.2164C250.224 49.1364 248.326 51.0351 246.32 52.9124C244.358 54.7897 242.438 56.5391 240.56 58.1604C238.683 59.7817 237.019 61.1684 235.568 62.3204C235.184 63.1311 234.822 63.9204 234.48 64.6884C234.182 65.4564 233.904 66.2031 233.648 66.9284C233.52 67.3124 233.328 67.8884 233.072 68.6564C232.816 69.4244 232.582 70.2777 232.368 71.2164C232.155 72.1551 232.048 73.0511 232.048 73.9044C232.048 74.7577 232.219 75.5044 232.56 76.1444C232.902 76.7417 233.52 77.0404 234.416 77.0404C235.142 77.0404 235.824 76.8057 236.464 76.3364C237.104 75.8671 237.659 75.3551 238.128 74.8004C239.11 73.7337 239.963 72.6457 240.688 71.5364C241.456 70.3844 242.203 69.1044 242.928 67.6964C243.099 67.3977 243.227 67.2484 243.312 67.2484C243.398 67.2484 243.44 67.3764 243.44 67.6324C243.44 68.0164 243.355 68.4217 243.184 68.8484C242.374 70.3417 241.627 71.6004 240.944 72.6244C240.304 73.6484 239.366 74.7791 238.128 76.0164C237.574 76.5711 236.934 77.0617 236.208 77.4884C235.483 77.9151 234.651 78.1284 233.712 78.1284C232.176 78.1284 231.088 77.6804 230.448 76.7844C229.851 75.8884 229.552 74.7577 229.552 73.3924C229.552 72.2404 229.723 70.9817 230.064 69.6164C230.406 68.2084 230.811 66.8431 231.28 65.5204C230.384 66.8431 229.382 68.2511 228.272 69.7444C227.163 71.1951 225.99 72.5604 224.752 73.8404C223.515 75.1204 222.278 76.1657 221.04 76.9764C219.846 77.7444 218.694 78.1284 217.584 78.1284ZM220.528 60.8484C221.851 59.6964 223.387 58.3311 225.136 56.7524C226.886 55.1311 228.678 53.4031 230.512 51.5684C232.347 49.7337 234.075 47.899 235.696 46.0644C237.36 44.2297 238.79 42.5017 239.984 40.8804C241.222 39.259 242.054 37.8511 242.48 36.6564C242.864 35.547 243.056 34.6937 243.056 34.0964C243.056 32.9871 242.566 32.4324 241.584 32.4324C241.03 32.4324 240.368 32.6457 239.6 33.0724C238.832 33.4564 238.128 33.9684 237.488 34.6084C236.464 35.6324 235.227 37.1044 233.776 39.0244C232.326 40.9017 230.811 43.0564 229.232 45.4884C227.654 47.9204 226.096 50.459 224.56 53.1044C223.067 55.7497 221.723 58.3311 220.528 60.8484ZM236.272 60.8484C237.638 59.6964 239.174 58.3311 240.88 56.7524C242.63 55.1311 244.422 53.4031 246.256 51.5684C248.091 49.7337 249.819 47.899 251.44 46.0644C253.104 44.2297 254.534 42.5017 255.728 40.8804C256.966 39.259 257.798 37.8511 258.224 36.6564C258.608 35.547 258.8 34.6937 258.8 34.0964C258.8 32.9871 258.31 32.4324 257.328 32.4324C256.774 32.4324 256.112 32.6457 255.344 33.0724C254.576 33.4564 253.872 33.9684 253.232 34.6084C252.208 35.6324 250.971 37.1044 249.52 39.0244C248.07 40.9017 246.555 43.0564 244.976 45.4884C243.398 47.9204 241.84 50.459 240.304 53.1044C238.811 55.7497 237.467 58.3311 236.272 60.8484ZM256.522 78.1924C255.157 78.1924 254.218 77.7657 253.706 76.9124C253.194 76.0164 252.938 75.0351 252.938 73.9684C252.938 73.7551 252.96 73.3924 253.002 72.8804C253.088 72.3257 253.173 71.8137 253.258 71.3444C252.661 72.1551 251.936 73.0511 251.082 74.0324C250.272 75.0137 249.44 75.8457 248.586 76.5284C247.221 77.6377 245.984 78.1924 244.874 78.1924C243.808 78.1924 242.976 77.7444 242.378 76.8484C241.824 75.9524 241.546 74.8217 241.546 73.4564C241.546 71.7071 241.93 69.9364 242.698 68.1444C243.466 66.3524 244.469 64.6671 245.706 63.0884C246.986 61.4671 248.394 60.0804 249.93 58.9284C250.826 58.2884 251.914 57.7764 253.194 57.3924C254.517 56.9657 255.84 56.7524 257.162 56.7524C258.656 56.7524 259.957 56.9871 261.066 57.4564C262.218 57.8831 263.008 58.5017 263.434 59.3124C262.538 60.4644 261.621 61.8937 260.682 63.6004C259.744 65.2644 258.933 66.7791 258.25 68.1444C257.781 69.0831 257.269 70.2564 256.714 71.6644C256.16 73.0297 255.882 74.2031 255.882 75.1844C255.882 75.6111 255.989 76.0377 256.202 76.4644C256.416 76.8911 256.821 77.1044 257.418 77.1044C258.101 77.1044 258.762 76.8484 259.402 76.3364C260.042 75.8244 260.576 75.3124 261.002 74.8004C261.984 73.7337 262.88 72.5604 263.69 71.2804C264.501 70.0004 265.312 68.6351 266.122 67.1844C266.25 67.0137 266.378 66.9284 266.506 66.9284C266.677 66.9284 266.762 67.0564 266.762 67.3124C266.762 67.5257 266.72 67.6964 266.634 67.8244C265.909 69.2324 265.098 70.6404 264.202 72.0484C263.306 73.4564 262.24 74.7791 261.002 76.0164C260.405 76.6137 259.701 77.1257 258.89 77.5524C258.08 77.9791 257.29 78.1924 256.522 78.1924ZM246.282 76.2084C247.093 76.2084 247.968 75.7817 248.906 74.9284C249.888 74.0324 250.826 72.9657 251.722 71.7284C252.661 70.4484 253.493 69.2324 254.218 68.0804C254.986 66.8857 255.584 65.9684 256.01 65.3284C256.906 63.9204 257.738 62.7471 258.506 61.8084C259.274 60.8697 260.469 60.1444 262.09 59.6324C262.176 59.6324 262.24 59.6324 262.282 59.6324C262.368 59.5897 262.453 59.5684 262.538 59.5684C262.154 58.9711 261.514 58.5231 260.618 58.2244C259.722 57.9257 258.848 57.7764 257.994 57.7764C256.672 57.7764 255.392 58.1391 254.154 58.8644C252.917 59.5897 251.786 60.5071 250.762 61.6164C249.781 62.7684 248.821 64.0271 247.882 65.3924C246.944 66.7577 246.176 68.1444 245.578 69.5524C245.024 70.9604 244.746 72.3044 244.746 73.5844C244.746 74.2671 244.853 74.8857 245.066 75.4404C245.322 75.9524 245.728 76.2084 246.282 76.2084Z" fill="#BB053A"/>
<path d="M153.68 47.9352C153.04 47.9352 152.58 47.7452 152.3 47.3652C152.04 46.9852 151.91 46.5252 151.91 45.9852C151.91 45.5852 151.97 45.1952 152.09 44.8152C152.21 44.3752 152.42 43.7752 152.72 43.0152C153.02 42.2552 153.35 41.4352 153.71 40.5552C154.09 39.6552 154.47 38.7952 154.85 37.9752C155.01 37.6152 155.19 37.2152 155.39 36.7752C155.61 36.3152 155.82 35.8652 156.02 35.4252C156.24 34.9852 156.42 34.6252 156.56 34.3452C156.92 33.6452 157.35 32.8152 157.85 31.8552C158.35 30.8952 158.92 29.9452 159.56 29.0052C160.22 28.0452 160.95 27.2252 161.75 26.5452C162.55 25.8652 163.42 25.4552 164.36 25.3152C164.44 25.2952 164.54 25.2852 164.66 25.2852C165.12 25.2852 165.46 25.4252 165.68 25.7052C165.92 25.9852 166.04 26.3252 166.04 26.7252C166.04 27.0852 165.97 27.4152 165.83 27.7152C165.51 28.4352 165 29.1952 164.3 29.9952C163.62 30.7952 162.88 31.5752 162.08 32.3352C161.3 33.0752 160.6 33.7452 159.98 34.3452C159.46 34.8452 159 35.2852 158.6 35.6652C158.2 36.0252 157.83 36.3852 157.49 36.7452C157.15 37.1052 156.78 37.5052 156.38 37.9452C156.16 38.4452 155.94 38.9552 155.72 39.4752C155.52 39.9752 155.41 40.2652 155.39 40.3452C155.95 39.5852 156.56 38.9252 157.22 38.3652C157.9 37.7852 158.52 37.4952 159.08 37.4952C159.74 37.4952 160.19 37.6652 160.43 38.0052C160.69 38.3452 160.82 38.7752 160.82 39.2952C160.82 39.7752 160.74 40.2852 160.58 40.8252C160.42 41.3652 160.23 41.8852 160.01 42.3852C159.81 42.8652 159.61 43.2752 159.41 43.6152C159.21 43.9352 158.98 44.2752 158.72 44.6352C158.48 44.9752 158.21 45.3052 157.91 45.6252C157.99 45.8852 158.12 46.0752 158.3 46.1952C158.48 46.3152 158.69 46.3752 158.93 46.3752C159.21 46.3752 159.5 46.3152 159.8 46.1952C160.1 46.0552 160.36 45.8952 160.58 45.7152C161.04 45.3352 161.46 44.8852 161.84 44.3652C162.22 43.8452 162.57 43.3052 162.89 42.7452C162.91 42.7052 162.92 42.6852 162.92 42.6852C162.94 42.6852 162.95 42.6852 162.95 42.6852C162.99 42.6852 163.01 42.7752 163.01 42.9552C163.01 43.0352 163.01 43.1152 163.01 43.1952C163.01 43.2552 162.99 43.3152 162.95 43.3752C162.61 43.9752 162.26 44.5152 161.9 44.9952C161.54 45.4552 161.1 45.8652 160.58 46.2252C160.04 46.6052 159.46 46.7952 158.84 46.7952C158.56 46.7952 158.3 46.7352 158.06 46.6152C157.82 46.4952 157.65 46.2952 157.55 46.0152C156.99 46.5552 156.38 47.0152 155.72 47.3952C155.08 47.7552 154.4 47.9352 153.68 47.9352ZM156.86 36.8952C157.32 36.3752 157.75 35.9152 158.15 35.5152C158.55 35.0952 159.04 34.5852 159.62 33.9852C160.18 33.4252 160.82 32.7652 161.54 32.0052C162.28 31.2452 162.97 30.4752 163.61 29.6952C164.27 28.9152 164.75 28.2252 165.05 27.6252C165.29 27.1452 165.41 26.7552 165.41 26.4552C165.41 25.8752 165.07 25.6352 164.39 25.7352C163.73 25.8152 163.09 26.1452 162.47 26.7252C161.87 27.3052 161.29 28.0352 160.73 28.9152C160.19 29.7752 159.68 30.6952 159.2 31.6752C158.72 32.6552 158.28 33.6052 157.88 34.5252C157.5 35.4452 157.16 36.2352 156.86 36.8952ZM154.97 46.9452C155.41 46.6452 155.83 46.2352 156.23 45.7152C156.63 45.1952 156.98 44.6752 157.28 44.1552C157.6 43.6352 157.84 43.2252 158 42.9252C158.12 42.7052 158.28 42.3652 158.48 41.9052C158.7 41.4252 158.9 40.9152 159.08 40.3752C159.26 39.8352 159.35 39.3652 159.35 38.9652C159.35 38.6852 159.29 38.4652 159.17 38.3052C159.07 38.1252 158.88 38.0352 158.6 38.0352C158.34 38.0352 158.03 38.1852 157.67 38.4852C157.33 38.7652 156.99 39.1252 156.65 39.5652C156.23 40.0852 155.77 40.7152 155.27 41.4552C154.77 42.1752 154.31 42.9252 153.89 43.7052C153.49 44.4852 153.19 45.1952 152.99 45.8352C152.93 46.0752 152.9 46.2852 152.9 46.4652C152.9 46.7852 152.98 47.0152 153.14 47.1552C153.32 47.2952 153.53 47.3652 153.77 47.3652C154.17 47.3652 154.57 47.2252 154.97 46.9452ZM163.728 56.0052C163.408 56.0852 163.088 56.1252 162.768 56.1252C162.188 56.1252 161.748 55.9852 161.448 55.7052C161.148 55.4252 160.998 55.0752 160.998 54.6552C160.998 54.2952 161.118 53.9052 161.358 53.4852C161.598 53.0852 161.958 52.7252 162.438 52.4052C163.058 51.9852 163.618 51.6452 164.118 51.3852C164.638 51.1252 165.198 50.8652 165.798 50.6052C166.398 50.3652 167.148 50.0352 168.048 49.6152C168.148 49.3952 168.258 49.1352 168.378 48.8352C168.498 48.5352 168.698 48.0352 168.978 47.3352C169.258 46.6352 169.668 45.5952 170.208 44.2152C169.768 44.7552 169.328 45.2552 168.888 45.7152C168.448 46.1752 168.088 46.5352 167.808 46.7952C167.408 47.0952 167.018 47.3352 166.638 47.5152C166.278 47.6752 165.918 47.7552 165.558 47.7552C165.078 47.7552 164.738 47.6152 164.538 47.3352C164.358 47.0552 164.268 46.7252 164.268 46.3452C164.268 46.0252 164.308 45.6952 164.388 45.3552C164.488 45.0152 164.598 44.6952 164.718 44.3952C164.998 43.6952 165.298 43.0352 165.618 42.4152C165.958 41.7752 166.288 41.1152 166.608 40.4352C166.688 40.2752 166.798 40.0152 166.938 39.6552C167.098 39.2952 167.178 38.9652 167.178 38.6652C167.178 38.3252 167.028 38.1552 166.728 38.1552C166.448 38.1552 166.158 38.2952 165.858 38.5752C165.578 38.8352 165.328 39.1352 165.108 39.4752C164.888 39.8152 164.718 40.0852 164.598 40.2852C164.598 40.2852 164.498 40.4752 164.298 40.8552C164.118 41.2352 163.878 41.7052 163.578 42.2652C163.298 42.8052 163.008 43.3152 162.708 43.7952C162.648 43.8952 162.568 43.9452 162.468 43.9452C162.388 43.9452 162.348 43.9052 162.348 43.8252C162.348 43.7852 162.398 43.6652 162.498 43.4652C162.938 42.6852 163.278 42.0352 163.518 41.5152C163.778 40.9952 164.068 40.4552 164.388 39.8952C164.708 39.3152 165.078 38.7652 165.498 38.2452C165.778 37.9452 166.078 37.7252 166.398 37.5852C166.738 37.4252 167.068 37.3452 167.388 37.3452C167.948 37.3452 168.328 37.4752 168.528 37.7352C168.748 37.9752 168.858 38.2752 168.858 38.6352C168.858 39.0152 168.778 39.4052 168.618 39.8052C168.458 40.2052 168.298 40.5552 168.138 40.8552C167.638 41.7352 167.228 42.5052 166.908 43.1652C166.588 43.8052 166.308 44.4252 166.068 45.0252C165.888 45.4652 165.798 45.8252 165.798 46.1052C165.798 46.6252 166.018 46.8852 166.458 46.8852C166.818 46.8852 167.188 46.7252 167.568 46.4052C168.628 45.5452 169.488 44.5352 170.148 43.3752C170.808 42.2152 171.438 41.0052 172.038 39.7452C172.238 39.3452 172.488 38.9152 172.788 38.4552C173.088 37.9752 173.458 37.5752 173.898 37.2552C174.338 36.9152 174.848 36.7652 175.428 36.8052C175.148 37.0652 174.808 37.5452 174.408 38.2452C174.028 38.9452 173.618 39.7652 173.178 40.7052C172.758 41.6452 172.338 42.6252 171.918 43.6452C171.498 44.6652 171.098 45.6452 170.718 46.5852C170.358 47.5052 170.048 48.2852 169.788 48.9252C170.328 48.7052 170.958 48.3652 171.678 47.9052C172.418 47.4652 173.108 46.8852 173.748 46.1652C174.208 45.6852 174.618 45.1452 174.978 44.5452C175.358 43.9252 175.738 43.2752 176.118 42.5952C176.178 42.5152 176.238 42.4752 176.298 42.4752C176.378 42.4752 176.418 42.5352 176.418 42.6552C176.418 42.7552 176.398 42.8352 176.358 42.8952C175.998 43.5552 175.618 44.2152 175.218 44.8752C174.818 45.5352 174.328 46.1552 173.748 46.7352C173.028 47.4152 172.298 47.9952 171.558 48.4752C170.838 48.9752 170.158 49.3352 169.518 49.5552C169.038 50.6352 168.528 51.6252 167.988 52.5252C167.468 53.4252 166.868 54.1752 166.188 54.7752C165.508 55.3752 164.688 55.7852 163.728 56.0052ZM163.548 55.4052C164.268 55.1852 164.888 54.7952 165.408 54.2352C165.928 53.6952 166.378 53.0652 166.758 52.3452C167.158 51.6252 167.498 50.9052 167.778 50.1852C167.138 50.5252 166.338 50.8752 165.378 51.2352C164.418 51.6152 163.508 52.1252 162.648 52.7652C162.268 53.0652 161.978 53.3752 161.778 53.6952C161.578 54.0152 161.478 54.3152 161.478 54.5952C161.478 54.8752 161.578 55.1052 161.778 55.2852C161.978 55.4652 162.268 55.5552 162.648 55.5552C162.768 55.5552 162.898 55.5452 163.038 55.5252C163.198 55.5052 163.368 55.4652 163.548 55.4052Z" fill="#110F0F"/>
<path d="M183.638 157.871H87.4146C87.4146 151.532 92.9329 146.605 99.2315 147.32L113.793 148.974L135.05 150.028H155.963L163.506 148.974L170.315 147.476L175.594 146.168C176.104 146.042 176.628 145.978 177.154 145.978C180.735 145.978 183.638 148.881 183.638 152.463V157.871Z" fill="#E7E7E6"/>
<path d="M87.6384 157.871H183.814C183.814 151.532 178.296 146.605 171.997 147.321L157.449 148.974L136.203 150.028H115.3L107.761 148.974L100.955 147.476L95.6788 146.168C95.1687 146.042 94.6451 145.978 94.1196 145.978C90.5401 145.978 87.6384 148.88 87.6384 152.459V157.871Z" fill="#E7E7E6"/>
<path d="M142.296 100.791L139.753 150.791H131.524L128.981 100.791H142.296Z" fill="#E7E7E6"/>
<path d="M147.861 100.755C147.861 106.278 142.389 110.755 135.638 110.755C128.888 110.755 123.416 106.278 123.416 100.755C123.416 95.2324 128.888 90.7552 135.638 90.7552C142.389 90.7552 147.861 95.2324 147.861 100.755Z" fill="#E7E7E6"/>
<path d="M10.6384 88.0905H260.638C260.638 93.6133 256.161 98.0905 250.638 98.0905H20.6384C15.1156 98.0905 10.6384 93.6133 10.6384 88.0905Z" fill="#E7E7E6"/>
</svg>
