<svg width="273" height="158" viewBox="0 0 273 158" fill="none" xmlns="http://www.w3.org/2000/svg">
<path d="M19.2077 84.1778C16.0077 84.1778 13.3197 83.6231 11.1437 82.5138C9.01038 81.4471 7.38905 79.9964 6.27972 78.1618C5.21305 76.3698 4.67972 74.3644 4.67972 72.1458C4.67972 70.4391 4.97838 68.6898 5.57572 66.8978C6.21572 65.1058 7.15438 63.3351 8.39172 61.5858C9.67172 59.8364 11.2504 58.2364 13.1277 56.7858C15.0051 55.3351 17.0531 54.1831 19.2717 53.3298C21.4904 52.4338 23.6877 51.9858 25.8637 51.9858C28.0397 51.9858 29.6397 52.4338 30.6637 53.3298C31.7304 54.1831 32.2637 55.2924 32.2637 56.6578C32.2637 57.4684 32.0717 58.3644 31.6877 59.3458C31.3037 60.3271 30.7064 61.3084 29.8957 62.2898C28.7864 63.6978 27.4211 64.9564 25.7997 66.0658C24.1784 67.1324 22.4504 67.9858 20.6157 68.6258C18.8237 69.2231 17.0317 69.5218 15.2397 69.5218C14.9411 69.5218 14.6637 69.5218 14.4077 69.5218C14.1517 69.4791 13.8744 69.4364 13.5757 69.3938C13.4051 69.3511 13.3197 69.2444 13.3197 69.0738C13.3624 68.8604 13.4691 68.7751 13.6397 68.8178C15.3891 68.9458 17.2451 68.6684 19.2077 67.9858C21.2131 67.3031 23.1117 66.3644 24.9037 65.1698C26.6957 63.9751 28.1037 62.6738 29.1277 61.2658C30.3224 59.6018 30.9197 58.0658 30.9197 56.6578C30.9197 55.6338 30.5571 54.7804 29.8317 54.0978C29.1064 53.3724 27.9544 53.0098 26.3757 53.0098C24.2851 53.0098 22.2584 53.4578 20.2957 54.3538C18.3331 55.2071 16.4984 56.3378 14.7917 57.7458C13.1277 59.1538 11.6984 60.6898 10.5037 62.3538C9.35172 63.9324 8.47705 65.5964 7.87972 67.3458C7.28238 69.0951 6.98372 70.7804 6.98372 72.4018C6.98372 74.2791 7.41038 76.0284 8.26372 77.6498C9.11705 79.2284 10.4184 80.4871 12.1677 81.4258C13.9171 82.4071 16.157 82.8978 18.8877 82.8978C21.9171 82.8978 24.6691 82.3644 27.1437 81.2978C29.6184 80.2738 31.7517 78.8658 33.5437 77.0738C35.3357 75.2391 36.701 73.1698 37.6397 70.8658C38.6211 68.5191 39.1117 66.0444 39.1117 63.4418C39.1117 62.3324 39.0691 61.2658 38.9837 60.2418C38.9411 59.1751 38.7491 58.1511 38.4077 57.1698C37.9384 55.6764 37.3411 54.1191 36.6157 52.4978C35.8904 50.8764 35.2291 49.2124 34.6317 47.5058C34.0771 45.7991 33.7997 44.0711 33.7997 42.3218C33.7997 40.7431 34.1197 39.1644 34.7597 37.5858C35.6131 35.6658 36.8504 34.1298 38.4717 32.9778C40.1357 31.7831 42.0771 31.1858 44.2957 31.1858C45.1064 31.1858 45.9171 31.3138 46.7277 31.5698C47.5811 31.7831 48.3064 32.1671 48.9037 32.7218C49.5011 33.2764 49.7997 34.0444 49.7997 35.0258C49.7997 35.7084 49.5864 36.1991 49.1597 36.4978C48.7331 36.7964 48.2851 36.9458 47.8157 36.9458C47.5597 36.9458 47.3891 36.9244 47.3037 36.8818L47.4957 35.6018C47.4957 34.5351 47.1757 33.7458 46.5357 33.2338C45.9384 32.6791 45.1491 32.4018 44.1677 32.4018C42.9731 32.4018 41.7997 32.7431 40.6477 33.4258C39.4957 34.0658 38.6424 34.8978 38.0877 35.9218C37.2344 37.5004 36.8077 39.1218 36.8077 40.7858C36.8077 42.2364 37.0424 43.6658 37.5117 45.0738C38.0237 46.4391 38.6211 47.7831 39.3037 49.1058C40.0291 50.3858 40.6904 51.6231 41.2877 52.8178C42.9944 56.0604 43.8477 59.4524 43.8477 62.9938C43.8477 66.0658 43.2077 68.9031 41.9277 71.5058C40.6477 74.0658 38.8771 76.2844 36.6157 78.1618C34.3544 80.0818 31.7304 81.5538 28.7437 82.5778C25.7997 83.6444 22.6211 84.1778 19.2077 84.1778ZM61.5292 78.0978C60.3346 78.0978 59.2892 77.6498 58.3932 76.7538C57.5399 75.8578 57.1132 74.5564 57.1132 72.8498C57.1132 72.2098 57.1772 71.5484 57.3052 70.8658C56.8786 71.6764 56.3026 72.5511 55.5772 73.4898C54.8519 74.3858 54.1266 75.1964 53.4012 75.9218C52.7185 76.6044 51.9079 77.1591 50.9692 77.5858C50.0732 77.9698 49.1772 78.1191 48.2812 78.0338C47.0865 77.9058 46.2332 77.4791 45.7212 76.7538C45.2519 76.0284 45.0172 75.1324 45.0172 74.0658C45.0172 72.6578 45.2945 71.1218 45.8492 69.4578C46.4465 67.7938 47.1292 66.2151 47.8972 64.7218C48.6652 63.1858 49.2839 61.9911 49.7532 61.1378C50.6919 59.5591 51.6306 58.5778 52.5692 58.1938C53.5506 57.8098 54.7452 57.6178 56.1532 57.6178C55.7266 57.7458 55.1719 58.2578 54.4892 59.1538C53.8066 60.0071 53.0812 61.0738 52.3132 62.3538C51.5879 63.6338 50.8839 65.0204 50.2012 66.5138C49.5612 67.9644 49.0279 69.3938 48.6012 70.8018C48.2172 72.1671 48.0252 73.3404 48.0252 74.3218C48.0252 75.0471 48.1532 75.6444 48.4092 76.1138C48.7079 76.5831 49.1559 76.8178 49.7532 76.8178C50.2652 76.8178 50.8625 76.6258 51.5452 76.2418C52.2279 75.8151 52.8465 75.3031 53.4012 74.7058C55.2786 72.6151 56.7932 70.3324 57.9452 67.8578C59.1399 65.3404 60.4626 62.8444 61.9132 60.3698C62.8519 58.7911 63.7906 57.8098 64.7292 57.4258C65.7106 57.0418 66.9052 56.8498 68.3132 56.8498C67.9292 56.9778 67.3746 57.4898 66.6492 58.3858C65.9666 59.2391 65.2199 60.3271 64.4092 61.6498C63.6412 62.9724 62.8946 64.3804 62.1692 65.8738C61.4866 67.3671 60.9106 68.7964 60.4412 70.1618C60.0146 71.5271 59.8012 72.6791 59.8012 73.6178C59.8012 74.8978 60.1426 75.7511 60.8252 76.1778C61.5079 76.5618 62.1266 76.7538 62.6812 76.7538C63.7906 76.7538 64.8359 76.3911 65.8172 75.6658C66.8412 74.9404 67.7586 74.0231 68.5692 72.9138C69.4226 71.8044 70.1479 70.6738 70.7452 69.5218C71.3852 68.3271 71.8759 67.3031 72.2172 66.4498C72.0466 65.7671 71.9612 64.5511 71.9612 62.8018C71.9612 61.7351 72.0252 60.6471 72.1532 59.5378C72.2812 58.4284 72.4946 57.4684 72.7932 56.6578C73.2199 55.5911 73.8812 55.0578 74.7772 55.0578C75.1186 55.0578 75.4172 55.2284 75.6732 55.5698C75.9719 55.9111 76.1212 56.4871 76.1212 57.2978C76.1212 58.4924 75.9292 59.7298 75.5452 61.0098C75.2039 62.2471 74.9266 63.1004 74.7132 63.5698C74.5426 63.9964 74.3292 64.5298 74.0732 65.1698C73.8172 65.7671 73.5186 66.4284 73.1772 67.1538C73.1346 68.4764 73.3479 69.5644 73.8172 70.4178C74.3292 71.2284 74.9479 71.6338 75.6732 71.6338C76.4839 71.6338 77.1879 71.3991 77.7852 70.9298C78.4252 70.4178 78.9586 69.8204 79.3852 69.1378C79.8546 68.4124 80.2386 67.7511 80.5372 67.1538C80.6652 66.8978 80.8359 66.7698 81.0492 66.7698C81.2199 66.7698 81.3052 66.8764 81.3052 67.0898C81.3052 67.2178 81.2412 67.4098 81.1132 67.6658C80.6012 68.8178 79.8759 69.9058 78.9372 70.9298C77.9986 71.9538 76.8465 72.4658 75.4812 72.4658C74.7986 72.4658 74.1159 72.1884 73.4332 71.6338C72.7932 71.0791 72.4092 70.2044 72.2812 69.0098C71.5559 70.2898 70.6812 71.6338 69.6572 73.0418C68.6759 74.4498 67.5239 75.6444 66.2012 76.6258C64.8786 77.6071 63.3212 78.0978 61.5292 78.0978ZM86.3892 78.1618C83.9145 78.1618 82.1652 77.5218 81.1412 76.2418C80.6292 75.6871 80.2665 75.0258 80.0532 74.2578C79.8399 73.4898 79.7332 72.7004 79.7332 71.8898C79.7332 70.8658 79.8612 69.8418 80.1172 68.8178C80.3732 67.7511 80.6932 66.7698 81.0772 65.8738C81.6745 64.4658 82.4639 63.0578 83.4452 61.6498C84.4265 60.1991 85.5999 58.9831 86.9652 58.0018C88.3732 57.0204 89.9092 56.5298 91.5732 56.5298C92.6826 56.5298 93.5572 56.8071 94.1972 57.3618C94.8372 57.9164 95.1572 58.7698 95.1572 59.9218C95.1572 61.2444 94.7519 62.5884 93.9412 63.9538C93.1306 65.2764 92.1066 66.3858 90.8692 67.2818C89.6319 68.1778 88.3519 68.6258 87.0292 68.6258C85.8346 68.6258 84.7892 68.1991 83.8932 67.3458C83.6372 68.0284 83.4239 68.7964 83.2532 69.6498C83.0826 70.4604 82.9972 71.2924 82.9972 72.1458C82.9972 73.4684 83.2532 74.6204 83.7652 75.6018C84.3199 76.5831 85.3012 77.0738 86.7092 77.0738C87.7332 77.0738 88.7146 76.8178 89.6532 76.3058C90.6346 75.7511 91.5092 75.0898 92.2772 74.3218C93.1306 73.4258 93.9412 72.4658 94.7092 71.4418C95.4772 70.4178 96.2239 69.2231 96.9492 67.8578C97.0346 67.7298 97.0986 67.6658 97.1412 67.6658C97.3119 67.6658 97.3972 67.8578 97.3972 68.2418C97.3972 68.4978 97.3119 68.7751 97.1412 69.0738C96.5012 70.2258 95.7546 71.3991 94.9012 72.5938C94.0479 73.7458 93.1732 74.7484 92.2772 75.6018C91.4666 76.3698 90.5919 76.9884 89.6532 77.4578C88.7146 77.9271 87.6266 78.1618 86.3892 78.1618ZM84.2132 66.3858C84.5119 66.8124 84.8532 67.1324 85.2372 67.3458C85.6639 67.5164 86.0905 67.6018 86.5172 67.6018C87.5412 67.6018 88.6079 67.2178 89.7172 66.4498C90.8266 65.6391 91.7226 64.7004 92.4052 63.6338C92.7039 63.1644 92.9599 62.5458 93.1732 61.7778C93.4292 61.0098 93.5572 60.2844 93.5572 59.6018C93.5572 59.0044 93.4292 58.4924 93.1732 58.0658C92.9599 57.5964 92.5119 57.3618 91.8292 57.3618C91.0612 57.3618 90.1439 57.8311 89.0772 58.7698C88.0532 59.7084 87.0719 60.9244 86.1332 62.4178C85.8346 62.9298 85.4932 63.5271 85.1092 64.2098C84.7679 64.8924 84.4692 65.6178 84.2132 66.3858ZM103.139 78.1618C100.665 78.1618 98.9152 77.5218 97.8912 76.2418C97.3792 75.6871 97.0165 75.0258 96.8032 74.2578C96.5899 73.4898 96.4832 72.7004 96.4832 71.8898C96.4832 70.8658 96.6112 69.8418 96.8672 68.8178C97.1232 67.7511 97.4432 66.7698 97.8272 65.8738C98.4245 64.4658 99.2139 63.0578 100.195 61.6498C101.177 60.1991 102.35 58.9831 103.715 58.0018C105.123 57.0204 106.659 56.5298 108.323 56.5298C109.433 56.5298 110.307 56.8071 110.947 57.3618C111.587 57.9164 111.907 58.7698 111.907 59.9218C111.907 61.2444 111.502 62.5884 110.691 63.9538C109.881 65.2764 108.857 66.3858 107.619 67.2818C106.382 68.1778 105.102 68.6258 103.779 68.6258C102.585 68.6258 101.539 68.1991 100.643 67.3458C100.387 68.0284 100.174 68.7964 100.003 69.6498C99.8326 70.4604 99.7472 71.2924 99.7472 72.1458C99.7472 73.4684 100.003 74.6204 100.515 75.6018C101.07 76.5831 102.051 77.0738 103.459 77.0738C104.483 77.0738 105.465 76.8178 106.403 76.3058C107.385 75.7511 108.259 75.0898 109.027 74.3218C109.881 73.4258 110.691 72.4658 111.459 71.4418C112.227 70.4178 112.974 69.2231 113.699 67.8578C113.785 67.7298 113.849 67.6658 113.891 67.6658C114.062 67.6658 114.147 67.8578 114.147 68.2418C114.147 68.4978 114.062 68.7751 113.891 69.0738C113.251 70.2258 112.505 71.3991 111.651 72.5938C110.798 73.7458 109.923 74.7484 109.027 75.6018C108.217 76.3698 107.342 76.9884 106.403 77.4578C105.465 77.9271 104.377 78.1618 103.139 78.1618ZM100.963 66.3858C101.262 66.8124 101.603 67.1324 101.987 67.3458C102.414 67.5164 102.841 67.6018 103.267 67.6018C104.291 67.6018 105.358 67.2178 106.467 66.4498C107.577 65.6391 108.473 64.7004 109.155 63.6338C109.454 63.1644 109.71 62.5458 109.923 61.7778C110.179 61.0098 110.307 60.2844 110.307 59.6018C110.307 59.0044 110.179 58.4924 109.923 58.0658C109.71 57.5964 109.262 57.3618 108.579 57.3618C107.811 57.3618 106.894 57.8311 105.827 58.7698C104.803 59.7084 103.822 60.9244 102.883 62.4178C102.585 62.9298 102.243 63.5271 101.859 64.2098C101.518 64.8924 101.219 65.6178 100.963 66.3858ZM116.305 78.0978C115.239 78.0978 114.279 77.7991 113.425 77.2018C112.615 76.5618 112.209 75.5378 112.209 74.1298C112.209 72.6364 112.572 70.9938 113.297 69.2018C114.023 67.4098 114.705 65.8098 115.345 64.4018C115.687 63.7191 116.135 62.8018 116.689 61.6498C117.287 60.4551 117.927 59.2818 118.609 58.1298H115.601C115.473 58.1298 115.409 58.0231 115.409 57.8098C115.409 57.6391 115.473 57.4684 115.601 57.2978C115.729 57.0844 115.879 56.9778 116.049 56.9778C117.244 56.9778 118.14 56.8711 118.737 56.6578C119.335 56.4444 119.847 56.1458 120.273 55.7618C120.956 55.1644 121.617 54.3964 122.257 53.4578C122.94 52.5191 123.601 51.7084 124.241 51.0258C124.711 50.4284 125.287 49.9804 125.969 49.6818C126.695 49.3831 127.164 49.2764 127.377 49.3618C127.164 49.6604 126.823 50.1724 126.353 50.8978C125.884 51.6231 125.393 52.4124 124.881 53.2658C124.369 54.1191 123.9 54.9084 123.473 55.6338C123.047 56.3591 122.769 56.8498 122.641 57.1058H126.865C126.993 57.1058 127.057 57.1484 127.057 57.2338C127.057 57.4044 126.951 57.5964 126.737 57.8098C126.567 58.0231 126.396 58.1298 126.225 58.1298H122.065C121.297 59.4524 120.38 61.1804 119.313 63.3138C118.289 65.4044 117.372 67.4311 116.561 69.3938C116.391 69.7778 116.092 70.5458 115.665 71.6978C115.281 72.8498 115.089 73.9164 115.089 74.8978C115.089 75.5378 115.217 76.0711 115.473 76.4978C115.772 76.9244 116.263 77.1378 116.945 77.1378C117.671 77.1378 118.46 76.8818 119.313 76.3698C120.167 75.8151 120.828 75.2604 121.297 74.7058C122.279 73.6391 123.175 72.4658 123.985 71.1858C124.796 69.9058 125.607 68.5404 126.417 67.0898C126.545 66.9191 126.673 66.8338 126.801 66.8338C126.972 66.8338 127.057 66.9618 127.057 67.2178C127.057 67.4311 127.015 67.6018 126.929 67.7298C126.161 69.1378 125.329 70.5458 124.433 71.9538C123.58 73.3618 122.535 74.6844 121.297 75.9218C120.743 76.4764 119.996 76.9884 119.057 77.4578C118.119 77.8844 117.201 78.0978 116.305 78.0978ZM127.786 78.1618C126.89 78.1618 126.058 77.9911 125.29 77.6498C124.564 77.2658 123.967 76.6258 123.498 75.7298C123.156 74.9618 122.986 74.1298 122.986 73.2338C122.986 72.2951 123.156 71.4204 123.498 70.6098C123.839 69.8844 124.223 69.2444 124.65 68.6898C125.076 68.1351 125.546 67.8151 126.058 67.7298C126.442 66.8764 126.975 65.8951 127.658 64.7858C128.34 63.6338 129.108 62.4818 129.962 61.3298C130.858 60.1778 131.754 59.1538 132.65 58.2578C133.802 57.1058 135.039 56.1884 136.362 55.5058C137.684 54.8231 139.007 54.4818 140.33 54.4818C141.354 54.4818 142.292 54.6951 143.146 55.1218C143.871 55.4631 144.234 55.9538 144.234 56.5938C144.234 56.8924 144.127 57.1484 143.914 57.3618C143.743 57.5751 143.551 57.6818 143.338 57.6818C143.082 57.6818 142.826 57.5324 142.57 57.2338C142.1 56.6364 141.311 56.1884 140.202 55.8898C140.031 55.8471 139.86 55.8258 139.69 55.8258C139.519 55.7831 139.348 55.7618 139.178 55.7618C138.026 55.7618 137.172 56.1458 136.618 56.9138C136.063 57.6818 135.786 58.6204 135.786 59.7298C135.786 60.7964 136.02 62.0338 136.49 63.4418C136.959 64.8071 137.194 66.3431 137.194 68.0498C137.194 69.4151 136.916 70.8018 136.362 72.2098C136.063 72.8924 135.7 73.5538 135.274 74.1938C134.89 74.8338 134.399 75.4098 133.802 75.9218L132.906 76.5618C133.034 76.6044 133.162 76.6471 133.29 76.6898C133.418 76.6898 133.546 76.6898 133.674 76.6898C134.399 76.6898 135.21 76.4764 136.106 76.0498C137.002 75.5804 137.791 75.0044 138.474 74.3218C139.498 73.3404 140.372 72.2951 141.098 71.1858C141.866 70.0764 142.57 68.9244 143.21 67.7298C143.252 67.5591 143.359 67.4738 143.53 67.4738C143.743 67.4738 143.85 67.6444 143.85 67.9858C143.85 68.1564 143.786 68.3484 143.658 68.5618C143.018 69.7564 142.228 71.0151 141.29 72.3378C140.394 73.6178 139.455 74.7058 138.474 75.6018C137.706 76.2844 136.874 76.7964 135.978 77.1378C135.124 77.4364 134.399 77.5858 133.802 77.5858C133.375 77.5858 133.034 77.5431 132.778 77.4578C132.522 77.3724 132.287 77.2444 132.074 77.0738C131.476 77.3724 130.794 77.6284 130.026 77.8418C129.3 78.0551 128.554 78.1618 127.786 78.1618ZM130.218 76.4978C131.071 75.9004 131.732 75.1324 132.202 74.1938C132.714 73.2551 133.098 72.2524 133.354 71.1858C133.695 69.9058 133.887 68.6684 133.93 67.4738C134.015 66.2364 134.058 65.1484 134.058 64.2098V62.2258C134.058 61.3298 134.164 60.4124 134.378 59.4738C134.634 58.4924 134.975 57.7671 135.402 57.2978C134.847 57.4258 134.164 57.9164 133.354 58.7698C132.543 59.5804 131.732 60.5404 130.922 61.6498C130.111 62.7591 129.364 63.8684 128.682 64.9778C128.042 66.0871 127.551 67.0044 127.21 67.7298C128.02 67.6871 128.575 67.9218 128.874 68.4338C129.172 68.9031 129.258 69.2444 129.13 69.4578C128.788 69.3724 128.554 69.3298 128.426 69.3298C127.786 69.3298 127.188 69.5644 126.634 70.0338C126.079 70.4604 125.61 71.1004 125.226 71.9538C124.842 72.7644 124.65 73.5538 124.65 74.3218C124.65 75.3458 124.948 76.0924 125.546 76.5618C126.143 77.0311 126.847 77.2658 127.658 77.2658C128.596 77.2658 129.45 77.0098 130.218 76.4978Z" fill="#BB053A"/>
<path d="M164.623 82.1938C164.452 82.2364 164.26 82.2578 164.047 82.2578C163.834 82.2578 163.62 82.2578 163.407 82.2578C161.956 82.2578 160.57 82.0018 159.247 81.4898C157.924 80.9778 157.05 79.9964 156.623 78.5458C156.495 78.1618 156.431 77.7351 156.431 77.2658C156.431 76.1138 156.794 75.0684 157.519 74.1298C157.69 73.9591 157.86 73.8524 158.031 73.8098C158.159 73.7244 158.223 73.8098 158.223 74.0658C158.351 76.1564 159.076 77.6498 160.399 78.5458C161.764 79.4844 163.364 79.9538 165.199 79.9538C166.948 79.9538 168.74 79.5911 170.575 78.8658C172.452 78.1404 174.116 77.1591 175.567 75.9218C177.444 74.2578 179.172 72.3378 180.751 70.1618C182.372 67.9858 183.908 65.7884 185.359 63.5698C185.871 62.7164 186.404 61.8631 186.959 61.0098C187.514 60.1564 188.068 59.3244 188.623 58.5138H172.687C172.602 58.5138 172.559 58.4711 172.559 58.3858C172.559 58.1724 172.708 57.9164 173.007 57.6178C173.348 57.2764 173.626 57.1058 173.839 57.1058H189.519C191.396 54.3324 193.338 51.6231 195.343 48.9778C197.348 46.2898 199.375 43.8364 201.423 41.6178C203.94 38.9724 206.564 36.8604 209.295 35.2818C212.068 33.6604 214.564 32.7858 216.783 32.6578C217.978 32.5724 219.044 32.6364 219.983 32.8498C220.964 33.0204 221.754 33.3618 222.351 33.8738C222.906 34.3004 223.311 34.8338 223.567 35.4738C223.823 36.1138 223.951 36.7751 223.951 37.4578C223.951 37.6284 223.93 37.7991 223.887 37.9698C223.887 38.1404 223.866 38.3324 223.823 38.5458C223.695 39.2284 223.439 39.7831 223.055 40.2098C222.884 40.3804 222.714 40.4658 222.543 40.4658C222.244 40.4658 222.223 40.2738 222.479 39.8898C222.863 39.3778 223.055 38.7591 223.055 38.0338C223.055 37.6498 222.991 37.3084 222.863 37.0098C222.564 36.1991 221.988 35.6018 221.135 35.2178C220.324 34.7911 219.364 34.5778 218.255 34.5778C215.866 34.5778 213.348 35.4311 210.703 37.1378C208.783 38.3751 206.82 40.0391 204.815 42.1298C202.852 44.1778 200.868 46.4818 198.863 49.0418C196.9 51.6018 194.938 54.2898 192.975 57.1058H202.383C202.767 56.3378 203.151 55.5698 203.535 54.8018C203.962 54.0338 204.388 53.2658 204.815 52.4978C206.394 49.6391 208.015 46.9084 209.679 44.3058C211.386 41.6604 212.9 39.2711 214.223 37.1378C214.351 36.9244 214.479 36.8178 214.607 36.8178C214.778 36.8178 214.884 36.9031 214.927 37.0738C214.97 37.2444 214.927 37.3938 214.799 37.5218C212.836 40.5084 211.108 43.6658 209.615 46.9938C208.164 50.3218 206.842 53.6924 205.647 57.1058H208.783C208.868 57.1058 208.911 57.1484 208.911 57.2338C208.911 57.4044 208.74 57.6604 208.399 58.0018C208.1 58.3431 207.823 58.5138 207.567 58.5138H205.135C204.751 59.6231 204.282 61.1164 203.727 62.9938C203.215 64.8284 202.746 66.7484 202.319 68.7538C201.935 70.7591 201.743 72.5938 201.743 74.2578C201.743 75.7938 201.978 76.9884 202.447 77.8418C202.959 78.6951 203.748 79.1218 204.815 79.1218C204.943 79.1218 205.071 79.1218 205.199 79.1218C205.327 79.1218 205.455 79.1004 205.583 79.0578C206.308 78.9298 207.034 78.5244 207.759 77.8418C208.527 77.1591 209.274 76.3484 209.999 75.4098C211.023 74.0871 211.962 72.6791 212.815 71.1858C213.668 69.6924 214.308 68.5404 214.735 67.7298C214.948 67.3884 215.119 67.2178 215.247 67.2178C215.418 67.2178 215.503 67.3671 215.503 67.6658C215.503 67.8364 215.439 68.0498 215.311 68.3058C214.714 69.3724 213.946 70.7164 213.007 72.3378C212.111 73.9164 211.108 75.3884 209.999 76.7538C209.188 77.6924 208.335 78.5031 207.439 79.1858C206.543 79.8684 205.604 80.2951 204.623 80.4658C204.367 80.5084 204.111 80.5298 203.855 80.5298C203.642 80.5724 203.407 80.5938 203.151 80.5938C201.914 80.5938 200.826 80.2311 199.887 79.5058C198.948 78.8231 198.308 77.6498 197.967 75.9858C197.882 75.5164 197.818 75.0258 197.775 74.5138C197.732 74.0018 197.711 73.5111 197.711 73.0418C197.711 70.5671 198.138 68.0711 198.991 65.5538C199.887 63.0364 200.804 60.6898 201.743 58.5138H191.887C191.204 59.4524 190.543 60.4338 189.903 61.4578C189.263 62.4391 188.602 63.4204 187.919 64.4018C186.682 66.1938 185.188 68.0924 183.439 70.0978C181.732 72.0604 179.855 73.9378 177.807 75.7298C175.759 77.4791 173.604 78.9511 171.343 80.1458C169.124 81.3404 166.884 82.0231 164.623 82.1938ZM217.656 78.0338C216.248 78.0338 215.267 77.5858 214.712 76.6898C214.157 75.7938 213.88 74.6844 213.88 73.3618C213.88 71.9538 214.093 70.4178 214.52 68.7538C214.989 67.0898 215.544 65.4684 216.184 63.8898C216.824 62.2684 217.421 60.8604 217.976 59.6658C218.531 58.4711 218.915 57.6391 219.128 57.1698C219.896 55.5484 220.856 53.7138 222.008 51.6658C223.16 49.6178 224.44 47.5271 225.848 45.3938C227.256 43.2604 228.771 41.2338 230.392 39.3138C232.013 37.3938 233.677 35.7298 235.384 34.3218C237.091 32.9138 238.797 31.9538 240.504 31.4418C240.973 31.3138 241.4 31.2498 241.784 31.2498C242.509 31.2498 243.107 31.4631 243.576 31.8898C244.088 32.2738 244.344 32.9564 244.344 33.9378C244.344 34.6204 244.173 35.4738 243.832 36.4978C243.277 37.9911 242.339 39.6551 241.016 41.4898C239.693 43.2818 238.136 45.1591 236.344 47.1218C234.552 49.0418 232.653 50.9404 230.648 52.8178C228.685 54.6951 226.765 56.4444 224.888 58.0658C223.011 59.6871 221.347 61.0738 219.896 62.2258C219.512 63.0364 219.149 63.8258 218.808 64.5938C218.509 65.3618 218.232 66.1084 217.976 66.8338C217.848 67.2178 217.656 67.7938 217.4 68.5618C217.144 69.3298 216.909 70.1831 216.696 71.1218C216.483 72.0604 216.376 72.9564 216.376 73.8098C216.376 74.6631 216.547 75.4098 216.888 76.0498C217.229 76.6471 217.848 76.9458 218.744 76.9458C219.469 76.9458 220.344 76.5618 221.368 75.7938C222.435 74.9831 223.523 73.9378 224.632 72.6578C225.784 71.3778 226.893 70.0338 227.96 68.6258C229.069 67.1751 230.072 65.7884 230.968 64.4658C231.864 63.1431 232.547 62.0551 233.016 61.2018C233.4 60.2631 233.763 59.4311 234.104 58.7058C234.445 57.9804 234.701 57.4684 234.872 57.1698C235.64 55.5484 236.6 53.7138 237.752 51.6658C238.904 49.6178 240.184 47.5271 241.592 45.3938C243 43.2604 244.515 41.2338 246.136 39.3138C247.757 37.3938 249.421 35.7298 251.128 34.3218C252.835 32.9138 254.541 31.9538 256.248 31.4418C256.717 31.3138 257.144 31.2498 257.528 31.2498C258.253 31.2498 258.851 31.4631 259.32 31.8898C259.832 32.2738 260.088 32.9564 260.088 33.9378C260.088 34.6204 259.917 35.4738 259.576 36.4978C259.021 37.9911 258.083 39.6551 256.76 41.4898C255.437 43.2818 253.88 45.1591 252.088 47.1218C250.296 49.0418 248.397 50.9404 246.392 52.8178C244.429 54.6951 242.509 56.4444 240.632 58.0658C238.755 59.6871 237.091 61.0738 235.64 62.2258C235.256 63.0364 234.893 63.8258 234.552 64.5938C234.253 65.3618 233.976 66.1084 233.72 66.8338C233.592 67.2178 233.4 67.7938 233.144 68.5618C232.888 69.3298 232.653 70.1831 232.44 71.1218C232.227 72.0604 232.12 72.9564 232.12 73.8098C232.12 74.6631 232.291 75.4098 232.632 76.0498C232.973 76.6471 233.592 76.9458 234.488 76.9458C235.213 76.9458 235.896 76.7111 236.536 76.2418C237.176 75.7724 237.731 75.2604 238.2 74.7058C239.181 73.6391 240.035 72.5511 240.76 71.4418C241.528 70.2898 242.275 69.0098 243 67.6018C243.171 67.3031 243.299 67.1538 243.384 67.1538C243.469 67.1538 243.512 67.2818 243.512 67.5378C243.512 67.9218 243.427 68.3271 243.256 68.7538C242.445 70.2471 241.699 71.5058 241.016 72.5298C240.376 73.5538 239.437 74.6844 238.2 75.9218C237.645 76.4764 237.005 76.9671 236.28 77.3938C235.555 77.8204 234.723 78.0338 233.784 78.0338C232.248 78.0338 231.16 77.5858 230.52 76.6898C229.923 75.7938 229.624 74.6631 229.624 73.2978C229.624 72.1458 229.795 70.8871 230.136 69.5218C230.477 68.1138 230.883 66.7484 231.352 65.4258C230.456 66.7484 229.453 68.1564 228.344 69.6498C227.235 71.1004 226.061 72.4658 224.824 73.7458C223.587 75.0258 222.349 76.0711 221.112 76.8818C219.917 77.6498 218.765 78.0338 217.656 78.0338ZM220.6 60.7538C221.923 59.6018 223.459 58.2364 225.208 56.6578C226.957 55.0364 228.749 53.3084 230.584 51.4738C232.419 49.6391 234.147 47.8044 235.768 45.9698C237.432 44.1351 238.861 42.4071 240.056 40.7858C241.293 39.1644 242.125 37.7564 242.552 36.5618C242.936 35.4524 243.128 34.5991 243.128 34.0018C243.128 32.8924 242.637 32.3378 241.656 32.3378C241.101 32.3378 240.44 32.5511 239.672 32.9778C238.904 33.3618 238.2 33.8738 237.56 34.5138C236.536 35.5378 235.299 37.0098 233.848 38.9298C232.397 40.8071 230.883 42.9618 229.304 45.3938C227.725 47.8258 226.168 50.3644 224.632 53.0098C223.139 55.6551 221.795 58.2364 220.6 60.7538ZM236.344 60.7538C237.709 59.6018 239.245 58.2364 240.952 56.6578C242.701 55.0364 244.493 53.3084 246.328 51.4738C248.163 49.6391 249.891 47.8044 251.512 45.9698C253.176 44.1351 254.605 42.4071 255.8 40.7858C257.037 39.1644 257.869 37.7564 258.296 36.5618C258.68 35.4524 258.872 34.5991 258.872 34.0018C258.872 32.8924 258.381 32.3378 257.4 32.3378C256.845 32.3378 256.184 32.5511 255.416 32.9778C254.648 33.3618 253.944 33.8738 253.304 34.5138C252.28 35.5378 251.043 37.0098 249.592 38.9298C248.141 40.8071 246.627 42.9618 245.048 45.3938C243.469 47.8258 241.912 50.3644 240.376 53.0098C238.883 55.6551 237.539 58.2364 236.344 60.7538ZM256.594 78.0978C255.229 78.0978 254.29 77.6711 253.778 76.8178C253.266 75.9218 253.01 74.9404 253.01 73.8738C253.01 73.6604 253.031 73.2978 253.074 72.7858C253.159 72.2311 253.245 71.7191 253.33 71.2498C252.733 72.0604 252.007 72.9564 251.154 73.9378C250.343 74.9191 249.511 75.7511 248.658 76.4338C247.293 77.5431 246.055 78.0978 244.946 78.0978C243.879 78.0978 243.047 77.6498 242.45 76.7538C241.895 75.8578 241.618 74.7271 241.618 73.3618C241.618 71.6124 242.002 69.8418 242.77 68.0498C243.538 66.2578 244.541 64.5724 245.778 62.9938C247.058 61.3724 248.466 59.9858 250.002 58.8338C250.898 58.1938 251.986 57.6818 253.266 57.2978C254.589 56.8711 255.911 56.6578 257.234 56.6578C258.727 56.6578 260.029 56.8924 261.138 57.3618C262.29 57.7884 263.079 58.4071 263.506 59.2178C262.61 60.3698 261.693 61.7991 260.754 63.5058C259.815 65.1698 259.005 66.6844 258.322 68.0498C257.853 68.9884 257.341 70.1618 256.786 71.5698C256.231 72.9351 255.954 74.1084 255.954 75.0898C255.954 75.5164 256.061 75.9431 256.274 76.3698C256.487 76.7964 256.893 77.0098 257.49 77.0098C258.173 77.0098 258.834 76.7538 259.474 76.2418C260.114 75.7298 260.647 75.2178 261.074 74.7058C262.055 73.6391 262.951 72.4658 263.762 71.1858C264.573 69.9058 265.383 68.5404 266.194 67.0898C266.322 66.9191 266.45 66.8338 266.578 66.8338C266.749 66.8338 266.834 66.9618 266.834 67.2178C266.834 67.4311 266.791 67.6018 266.706 67.7298C265.981 69.1378 265.17 70.5458 264.274 71.9538C263.378 73.3618 262.311 74.6844 261.074 75.9218C260.477 76.5191 259.773 77.0311 258.962 77.4578C258.151 77.8844 257.362 78.0978 256.594 78.0978ZM246.354 76.1138C247.165 76.1138 248.039 75.6871 248.978 74.8338C249.959 73.9378 250.898 72.8711 251.794 71.6338C252.733 70.3538 253.565 69.1378 254.29 67.9858C255.058 66.7911 255.655 65.8738 256.082 65.2338C256.978 63.8258 257.81 62.6524 258.578 61.7138C259.346 60.7751 260.541 60.0498 262.162 59.5378C262.247 59.5378 262.311 59.5378 262.354 59.5378C262.439 59.4951 262.525 59.4738 262.61 59.4738C262.226 58.8764 261.586 58.4284 260.69 58.1298C259.794 57.8311 258.919 57.6818 258.066 57.6818C256.743 57.6818 255.463 58.0444 254.226 58.7698C252.989 59.4951 251.858 60.4124 250.834 61.5218C249.853 62.6738 248.893 63.9324 247.954 65.2978C247.015 66.6631 246.247 68.0498 245.65 69.4578C245.095 70.8658 244.818 72.2098 244.818 73.4898C244.818 74.1724 244.925 74.7911 245.138 75.3458C245.394 75.8578 245.799 76.1138 246.354 76.1138Z" fill="#BB053A"/>
<path d="M153.752 47.8406C153.112 47.8406 152.652 47.6506 152.372 47.2706C152.112 46.8906 151.982 46.4306 151.982 45.8906C151.982 45.4906 152.042 45.1006 152.162 44.7206C152.282 44.2806 152.492 43.6806 152.792 42.9206C153.092 42.1606 153.422 41.3406 153.782 40.4606C154.162 39.5606 154.542 38.7006 154.922 37.8806C155.082 37.5206 155.262 37.1206 155.462 36.6806C155.682 36.2206 155.892 35.7706 156.092 35.3306C156.312 34.8906 156.492 34.5306 156.632 34.2506C156.992 33.5506 157.422 32.7206 157.922 31.7606C158.422 30.8006 158.992 29.8506 159.632 28.9106C160.292 27.9506 161.022 27.1306 161.822 26.4506C162.622 25.7706 163.492 25.3606 164.432 25.2206C164.512 25.2006 164.612 25.1906 164.732 25.1906C165.192 25.1906 165.532 25.3306 165.752 25.6106C165.992 25.8906 166.112 26.2306 166.112 26.6306C166.112 26.9906 166.042 27.3206 165.902 27.6206C165.582 28.3406 165.072 29.1006 164.372 29.9006C163.692 30.7006 162.952 31.4806 162.152 32.2406C161.372 32.9806 160.672 33.6506 160.052 34.2506C159.532 34.7506 159.072 35.1906 158.672 35.5706C158.272 35.9306 157.902 36.2906 157.562 36.6506C157.222 37.0106 156.852 37.4106 156.452 37.8506C156.232 38.3506 156.012 38.8606 155.792 39.3806C155.592 39.8806 155.482 40.1706 155.462 40.2506C156.022 39.4906 156.632 38.8306 157.292 38.2706C157.972 37.6906 158.592 37.4006 159.152 37.4006C159.812 37.4006 160.262 37.5706 160.502 37.9106C160.762 38.2506 160.892 38.6806 160.892 39.2006C160.892 39.6806 160.812 40.1906 160.652 40.7306C160.492 41.2706 160.302 41.7906 160.082 42.2906C159.882 42.7706 159.682 43.1806 159.482 43.5206C159.282 43.8406 159.052 44.1806 158.792 44.5406C158.552 44.8806 158.282 45.2106 157.982 45.5306C158.062 45.7906 158.192 45.9806 158.372 46.1006C158.552 46.2206 158.762 46.2806 159.002 46.2806C159.282 46.2806 159.572 46.2206 159.872 46.1006C160.172 45.9606 160.432 45.8006 160.652 45.6206C161.112 45.2406 161.532 44.7906 161.912 44.2706C162.292 43.7506 162.642 43.2106 162.962 42.6506C162.982 42.6106 162.992 42.5906 162.992 42.5906C163.012 42.5906 163.022 42.5906 163.022 42.5906C163.062 42.5906 163.082 42.6806 163.082 42.8606C163.082 42.9406 163.082 43.0206 163.082 43.1006C163.082 43.1606 163.062 43.2206 163.022 43.2806C162.682 43.8806 162.332 44.4206 161.972 44.9006C161.612 45.3606 161.172 45.7706 160.652 46.1306C160.112 46.5106 159.532 46.7006 158.912 46.7006C158.632 46.7006 158.372 46.6406 158.132 46.5206C157.892 46.4006 157.722 46.2006 157.622 45.9206C157.062 46.4606 156.452 46.9206 155.792 47.3006C155.152 47.6606 154.472 47.8406 153.752 47.8406ZM156.932 36.8006C157.392 36.2806 157.822 35.8206 158.222 35.4206C158.622 35.0006 159.112 34.4906 159.692 33.8906C160.252 33.3306 160.892 32.6706 161.612 31.9106C162.352 31.1506 163.042 30.3806 163.682 29.6006C164.342 28.8206 164.822 28.1306 165.122 27.5306C165.362 27.0506 165.482 26.6606 165.482 26.3606C165.482 25.7806 165.142 25.5406 164.462 25.6406C163.802 25.7206 163.162 26.0506 162.542 26.6306C161.942 27.2106 161.362 27.9406 160.802 28.8206C160.262 29.6806 159.752 30.6006 159.272 31.5806C158.792 32.5606 158.352 33.5106 157.952 34.4306C157.572 35.3506 157.232 36.1406 156.932 36.8006ZM155.042 46.8506C155.482 46.5506 155.902 46.1406 156.302 45.6206C156.702 45.1006 157.052 44.5806 157.352 44.0606C157.672 43.5406 157.912 43.1306 158.072 42.8306C158.192 42.6106 158.352 42.2706 158.552 41.8106C158.772 41.3306 158.972 40.8206 159.152 40.2806C159.332 39.7406 159.422 39.2706 159.422 38.8706C159.422 38.5906 159.362 38.3706 159.242 38.2106C159.142 38.0306 158.952 37.9406 158.672 37.9406C158.412 37.9406 158.102 38.0906 157.742 38.3906C157.402 38.6706 157.062 39.0306 156.722 39.4706C156.302 39.9906 155.842 40.6206 155.342 41.3606C154.842 42.0806 154.382 42.8306 153.962 43.6106C153.562 44.3906 153.262 45.1006 153.062 45.7406C153.002 45.9806 152.972 46.1906 152.972 46.3706C152.972 46.6906 153.052 46.9206 153.212 47.0606C153.392 47.2006 153.602 47.2706 153.842 47.2706C154.242 47.2706 154.642 47.1306 155.042 46.8506ZM163.8 55.9106C163.48 55.9906 163.16 56.0306 162.84 56.0306C162.26 56.0306 161.82 55.8906 161.52 55.6106C161.22 55.3306 161.07 54.9806 161.07 54.5606C161.07 54.2006 161.19 53.8106 161.43 53.3906C161.67 52.9906 162.03 52.6306 162.51 52.3106C163.13 51.8906 163.69 51.5506 164.19 51.2906C164.71 51.0306 165.27 50.7706 165.87 50.5106C166.47 50.2706 167.22 49.9406 168.12 49.5206C168.22 49.3006 168.33 49.0406 168.45 48.7406C168.57 48.4406 168.77 47.9406 169.05 47.2406C169.33 46.5406 169.74 45.5006 170.28 44.1206C169.84 44.6606 169.4 45.1606 168.96 45.6206C168.52 46.0806 168.16 46.4406 167.88 46.7006C167.48 47.0006 167.09 47.2406 166.71 47.4206C166.35 47.5806 165.99 47.6606 165.63 47.6606C165.15 47.6606 164.81 47.5206 164.61 47.2406C164.43 46.9606 164.34 46.6306 164.34 46.2506C164.34 45.9306 164.38 45.6006 164.46 45.2606C164.56 44.9206 164.67 44.6006 164.79 44.3006C165.07 43.6006 165.37 42.9406 165.69 42.3206C166.03 41.6806 166.36 41.0206 166.68 40.3406C166.76 40.1806 166.87 39.9206 167.01 39.5606C167.17 39.2006 167.25 38.8706 167.25 38.5706C167.25 38.2306 167.1 38.0606 166.8 38.0606C166.52 38.0606 166.23 38.2006 165.93 38.4806C165.65 38.7406 165.4 39.0406 165.18 39.3806C164.96 39.7206 164.79 39.9906 164.67 40.1906C164.67 40.1906 164.57 40.3806 164.37 40.7606C164.19 41.1406 163.95 41.6106 163.65 42.1706C163.37 42.7106 163.08 43.2206 162.78 43.7006C162.72 43.8006 162.64 43.8506 162.54 43.8506C162.46 43.8506 162.42 43.8106 162.42 43.7306C162.42 43.6906 162.47 43.5706 162.57 43.3706C163.01 42.5906 163.35 41.9406 163.59 41.4206C163.85 40.9006 164.14 40.3606 164.46 39.8006C164.78 39.2206 165.15 38.6706 165.57 38.1506C165.85 37.8506 166.15 37.6306 166.47 37.4906C166.81 37.3306 167.14 37.2506 167.46 37.2506C168.02 37.2506 168.4 37.3806 168.6 37.6406C168.82 37.8806 168.93 38.1806 168.93 38.5406C168.93 38.9206 168.85 39.3106 168.69 39.7106C168.53 40.1106 168.37 40.4606 168.21 40.7606C167.71 41.6406 167.3 42.4106 166.98 43.0706C166.66 43.7106 166.38 44.3306 166.14 44.9306C165.96 45.3706 165.87 45.7306 165.87 46.0106C165.87 46.5306 166.09 46.7906 166.53 46.7906C166.89 46.7906 167.26 46.6306 167.64 46.3106C168.7 45.4506 169.56 44.4406 170.22 43.2806C170.88 42.1206 171.51 40.9106 172.11 39.6506C172.31 39.2506 172.56 38.8206 172.86 38.3606C173.16 37.8806 173.53 37.4806 173.97 37.1606C174.41 36.8206 174.92 36.6706 175.5 36.7106C175.22 36.9706 174.88 37.4506 174.48 38.1506C174.1 38.8506 173.69 39.6706 173.25 40.6106C172.83 41.5506 172.41 42.5306 171.99 43.5506C171.57 44.5706 171.17 45.5506 170.79 46.4906C170.43 47.4106 170.12 48.1906 169.86 48.8306C170.4 48.6106 171.03 48.2706 171.75 47.8106C172.49 47.3706 173.18 46.7906 173.82 46.0706C174.28 45.5906 174.69 45.0506 175.05 44.4506C175.43 43.8306 175.81 43.1806 176.19 42.5006C176.25 42.4206 176.31 42.3806 176.37 42.3806C176.45 42.3806 176.49 42.4406 176.49 42.5606C176.49 42.6606 176.47 42.7406 176.43 42.8006C176.07 43.4606 175.69 44.1206 175.29 44.7806C174.89 45.4406 174.4 46.0606 173.82 46.6406C173.1 47.3206 172.37 47.9006 171.63 48.3806C170.91 48.8806 170.23 49.2406 169.59 49.4606C169.11 50.5406 168.6 51.5306 168.06 52.4306C167.54 53.3306 166.94 54.0806 166.26 54.6806C165.58 55.2806 164.76 55.6906 163.8 55.9106ZM163.62 55.3106C164.34 55.0906 164.96 54.7006 165.48 54.1406C166 53.6006 166.45 52.9706 166.83 52.2506C167.23 51.5306 167.57 50.8106 167.85 50.0906C167.21 50.4306 166.41 50.7806 165.45 51.1406C164.49 51.5206 163.58 52.0306 162.72 52.6706C162.34 52.9706 162.05 53.2806 161.85 53.6006C161.65 53.9206 161.55 54.2206 161.55 54.5006C161.55 54.7806 161.65 55.0106 161.85 55.1906C162.05 55.3706 162.34 55.4606 162.72 55.4606C162.84 55.4606 162.97 55.4506 163.11 55.4306C163.27 55.4106 163.44 55.3706 163.62 55.3106Z" fill="#110F0F"/>
<path d="M183.71 157.669H88.0724C88.0724 151.331 93.5917 146.407 99.8884 147.126L114.29 148.772L135.417 149.826H156.203L163.7 148.772L170.468 147.274L175.711 145.967C176.221 145.84 176.744 145.776 177.269 145.776C180.826 145.776 183.71 148.66 183.71 152.217V157.669Z" fill="#110F0F"/>
<path d="M87.7101 157.776H183.475C183.475 151.438 177.956 146.513 171.659 147.232L157.222 148.879L136.067 149.934H115.254L107.747 148.879L100.97 147.381L95.7188 146.074C95.2092 145.947 94.6859 145.883 94.1607 145.883C90.5982 145.883 87.7101 148.771 87.7101 152.334V157.776Z" fill="#110F0F"/>
<path d="M142.368 100.697L139.825 150.697H131.596L129.053 100.697H142.368Z" fill="#110F0F"/>
<path d="M147.932 100.661C147.932 106.183 142.46 110.661 135.71 110.661C128.96 110.661 123.488 106.183 123.488 100.661C123.488 95.1378 128.96 90.6606 135.71 90.6606C142.46 90.6606 147.932 95.1378 147.932 100.661Z" fill="#110F0F"/>
<path d="M10.7101 87.9958H260.71C260.71 93.5187 256.233 97.9958 250.71 97.9958H20.7101C15.1873 97.9958 10.7101 93.5187 10.7101 87.9958Z" fill="#110F0F"/>
</svg>
